<svg width="851" height="741" viewBox="0 0 851 741" fill="none" xmlns="http://www.w3.org/2000/svg">
<path d="M659.428 443.504V443.377C642.13 437.632 615.59 439.583 611.647 441.936C607.455 444.742 603.854 448.343 601.048 452.535C591.731 465.753 585.051 480.645 581.376 496.394L393.242 513.883C386.31 498.917 375.859 485.498 365.366 477.4C362.368 474.89 358.913 472.982 355.191 471.783C353.552 471.587 351.894 471.644 350.273 471.952C343.447 452.174 333.78 433.096 321.697 431.888C296.26 429.344 251.871 437.866 239.766 462.54C227.662 487.215 223.868 548.817 223.868 548.817L215.388 557.296C209.204 545.248 200.602 534.604 190.12 526.029C187.132 523.504 183.674 521.595 179.945 520.412C177.825 519.818 169.346 521.132 160.464 524.036C160.103 523.697 159.764 523.358 159.383 523.04C150.903 515.939 133.521 512.059 123.812 530.163C114.103 548.266 125.762 582.544 131.571 590.302C134.391 594.266 137.929 597.666 142 600.329C148.847 617.288 161.078 638.91 179.903 639.906C186.35 640.253 192.797 639.21 198.806 636.847C204.815 634.484 210.246 630.857 214.731 626.212C226.941 613.493 228.256 595.623 223.656 578.134L225.627 575.251C225.627 575.251 230.015 581.505 246.825 578.982C251.698 578.48 256.318 576.565 260.117 573.471C268.002 593.588 280.743 613.747 300.987 616.758C309.675 618.087 318.548 617.529 327.001 615.122C335.455 612.715 343.291 608.516 349.976 602.809C353.862 599.453 357.252 595.564 360.045 591.256C371.38 590.63 382.059 585.738 389.935 577.562C396.982 570.047 401.012 560.198 401.254 549.898L426.29 546.973C442.005 553.983 459.151 557.193 476.339 556.343C492.797 555.285 508.376 548.541 520.41 537.264L577.454 532.389C578.408 554.498 586.357 574.785 605.012 585.957C612.154 590.219 620.135 592.883 628.406 593.765C636.676 594.647 645.04 593.726 652.92 591.065C679.227 582.247 685.459 543.157 687.155 519.394C689.784 481.237 677.616 448.91 659.428 443.504Z" fill="#263238" stroke="#263238" stroke-width="0.75" stroke-linecap="round" stroke-linejoin="round"/>
<path d="M311.141 604.484C308.953 607.28 306.164 609.548 302.979 611.119" stroke="white" stroke-width="0.5" stroke-linecap="round" stroke-linejoin="round"/>
<path d="M321.422 554.244C321.422 554.244 323.945 581.802 314.554 599.29" stroke="white" stroke-width="0.5" stroke-linecap="round" stroke-linejoin="round"/>
<path d="M328.863 584.685C326.467 595.284 321.698 605.565 312.455 610.123" stroke="white" stroke-width="0.5" stroke-linecap="round" stroke-linejoin="round"/>
<path d="M340.373 552.145C340.373 552.145 344.613 597.955 321.952 609.02" stroke="white" stroke-width="0.5" stroke-linecap="round" stroke-linejoin="round"/>
<path d="M349.87 551.085C349.87 551.085 354.11 596.916 331.428 607.96" stroke="white" stroke-width="0.5" stroke-linecap="round" stroke-linejoin="round"/>
<path d="M635.855 583.201C633.419 586.278 630.392 588.836 626.952 590.726" stroke="white" stroke-width="0.5" stroke-linecap="round" stroke-linejoin="round"/>
<path d="M652.899 525.987C652.899 525.987 651.542 557.339 639.904 577.287" stroke="white" stroke-width="0.5" stroke-linecap="round" stroke-linejoin="round"/>
<path d="M655.93 560.709C652.115 572.771 646.009 584.473 636.364 589.56" stroke="white" stroke-width="0.5" stroke-linecap="round" stroke-linejoin="round"/>
<path d="M671.723 523.655C671.723 523.655 669.455 575.887 645.776 588.394" stroke="white" stroke-width="0.5" stroke-linecap="round" stroke-linejoin="round"/>
<path d="M681.177 522.51C681.177 522.51 678.909 574.722 655.23 587.25" stroke="white" stroke-width="0.5" stroke-linecap="round" stroke-linejoin="round"/>
<path d="M185.88 632.826C184.077 635.59 181.698 637.933 178.906 639.694" stroke="white" stroke-width="0.5" stroke-linecap="round" stroke-linejoin="round"/>
<path d="M189.23 588.246C189.23 588.246 195.208 611.564 188.467 627.866" stroke="white" stroke-width="0.5" stroke-linecap="round" stroke-linejoin="round"/>
<path d="M200.316 613.281C199.363 622.714 196.077 632.211 187.873 637.426" stroke="white" stroke-width="0.5" stroke-linecap="round" stroke-linejoin="round"/>
<path d="M207.121 583.71C207.121 583.71 217.084 622.396 196.819 635.136" stroke="white" stroke-width="0.5" stroke-linecap="round" stroke-linejoin="round"/>
<path d="M216.067 581.42C216.067 581.42 226.051 620.107 205.765 632.868" stroke="white" stroke-width="0.5" stroke-linecap="round" stroke-linejoin="round"/>
<path d="M289.137 538.536C294.182 567.387 291.024 592.062 282.12 593.652C273.217 595.241 261.876 573.068 256.831 544.217C251.786 515.366 254.944 490.692 263.869 489.102C272.793 487.512 284.092 509.664 289.137 538.536Z" fill="#92E3A9" stroke="#263238" stroke-linecap="round" stroke-linejoin="round"/>
<path d="M284.643 539.151C286.042 550.216 284.749 559.48 281.718 559.862C278.686 560.243 275.125 551.594 273.726 540.529C272.327 529.463 273.726 520.178 276.651 519.797C279.577 519.415 283.244 528.085 284.643 539.151Z" fill="#92E3A9" stroke="#263238" stroke-linecap="round" stroke-linejoin="round"/>
<path d="M263.381 512.695C263.682 508.981 264.27 505.296 265.141 501.672" stroke="#263238" stroke-width="0.75" stroke-linecap="round" stroke-linejoin="round"/>
<path d="M277.436 583.243C271.57 571.498 267.374 558.99 264.971 546.083C263.375 536.953 262.728 527.682 263.042 518.419" stroke="#263238" stroke-width="0.75" stroke-linecap="round" stroke-linejoin="round"/>
<path d="M164.382 624.279C170.79 622.503 171.323 604.244 165.573 583.496C159.823 562.748 149.967 547.368 143.559 549.144C137.151 550.92 136.617 569.179 142.367 589.927C148.117 610.675 157.973 626.055 164.382 624.279Z" fill="#92E3A9" stroke="#263238" stroke-linecap="round" stroke-linejoin="round"/>
<path d="M163.474 584.324C165.488 592.21 165.382 599.036 163.22 599.587C161.057 600.138 157.708 594.182 155.694 586.317C153.68 578.452 153.786 571.584 155.949 571.054C158.111 570.524 161.46 576.439 163.474 584.324Z" stroke="#263238" stroke-width="0.75" stroke-linecap="round" stroke-linejoin="round"/>
<path d="M145.71 567.09C145.592 564.374 145.684 561.652 145.985 558.95" stroke="#263238" stroke-width="0.75" stroke-linecap="round" stroke-linejoin="round"/>
<path d="M162.223 616.885C156.923 608.91 152.763 600.234 149.865 591.108C147.884 584.646 146.577 577.997 145.964 571.266" stroke="#263238" stroke-width="0.75" stroke-linecap="round" stroke-linejoin="round"/>
<path d="M618.791 229.402C596.448 183.296 586.803 179.29 571.943 178.527C557.083 177.763 522 173.397 482.91 179.65C482.91 179.65 373.866 177.742 289.497 228.851C201.419 282.207 158.556 329.076 152.557 353.37C146.558 377.663 126.08 440.961 116.371 477.252C106.663 513.543 100.049 545.51 112.429 574.891C119.912 592.655 127.882 597.997 138.121 597.912C136.554 595.102 135.174 592.191 133.987 589.2C123.812 563.995 125.042 527.937 136.658 525.605C148.275 523.273 155.207 547.418 162.223 573.746C163.616 579.55 165.503 585.223 167.862 590.705C185.223 584.155 213.035 569.507 250.005 554.286C246.496 531.163 246.417 507.648 249.772 484.502C255.241 448.316 278.368 440.325 288.438 462.35C296.768 480.495 299.863 521.111 300.69 534.805C315.529 529.697 327.951 526.326 335.604 525.86C335.604 525.86 462.115 497.284 555.366 494.995C648.617 492.706 695.274 490.48 695.274 490.48C695.274 490.48 641.134 275.424 618.791 229.402Z" fill="white"/>
<path d="M320.658 451.857C320.658 451.857 307.834 469.409 292.232 473.161C297.743 493.384 300.011 523.316 300.711 534.636C313.96 530.078 325.216 526.877 332.932 525.944C334.056 519.331 334.734 515.112 334.734 515.112L320.658 451.857Z" fill="#92E3A9"/>
<path opacity="0.2" d="M162.774 575.654C168.667 576.248 172.589 578.792 184.566 575.803C205.764 570.524 190.523 529.612 225.691 512.907C232.517 509.465 239.946 507.377 247.567 506.76C247.883 499.273 248.591 491.809 249.687 484.396C250.621 477.115 252.77 470.042 256.046 463.473C246.444 460.527 244.705 457.707 228.34 465.487C193.151 482.191 198.43 525.287 177.337 530.566C160.506 534.805 159.573 528.043 146.791 531.18C152.769 539.66 157.39 556.173 162.053 573.577C162.414 574.361 162.583 574.934 162.774 575.654Z" fill="#92E3A9"/>
<g style="mix-blend-mode:multiply">
<g style="mix-blend-mode:multiply" opacity="0.2">
<path d="M128.158 539.426C118.3 546.21 112.428 556.385 109.079 564.97C109.988 568.358 111.106 571.685 112.428 574.933C119.911 592.698 127.882 598.039 138.121 597.955C136.554 595.144 135.173 592.233 133.987 589.242C127.522 573.195 125.783 552.781 128.158 539.426Z" fill="#92E3A9"/>
</g>
</g>
<g style="mix-blend-mode:multiply" opacity="0.2">
<path d="M571.942 178.527L568.106 178.293C413.507 217.849 350.612 404.182 328.968 493.977C330.134 502.902 331.406 511.657 332.784 520.178C335.412 519.67 333.589 525.86 335.603 525.754C335.603 525.754 462.114 497.178 555.365 494.889C648.616 492.6 695.274 490.374 695.274 490.374C695.274 490.374 641.133 275.424 618.791 229.402C596.448 183.381 586.802 179.205 571.942 178.527Z" fill="#92E3A9"/>
</g>
<path d="M618.791 229.402C596.448 183.296 586.803 179.29 571.943 178.527C557.083 177.763 522 173.397 482.91 179.65C482.91 179.65 373.866 177.742 289.497 228.851C201.419 282.207 158.556 329.076 152.557 353.37C146.558 377.663 126.08 440.961 116.371 477.252C106.663 513.543 100.049 545.51 112.429 574.891C119.912 592.655 127.882 597.997 138.121 597.912C136.554 595.102 135.174 592.191 133.987 589.2C123.812 563.995 125.042 527.937 136.658 525.605C148.275 523.273 155.207 547.418 162.223 573.746C163.616 579.55 165.503 585.223 167.862 590.705C185.223 584.155 213.035 569.507 250.005 554.286C246.496 531.163 246.417 507.648 249.772 484.502C255.241 448.316 278.368 440.325 288.438 462.35C296.768 480.495 299.863 521.111 300.69 534.805C315.529 529.697 327.951 526.326 335.604 525.86C335.604 525.86 462.115 497.284 555.366 494.995C648.617 492.706 695.274 490.48 695.274 490.48C695.274 490.48 641.134 275.424 618.791 229.402Z" stroke="#263238" stroke-linecap="round" stroke-linejoin="round"/>
<path opacity="0.2" d="M156.033 462.074C157.488 463.285 159.26 464.054 161.138 464.29C163.016 464.527 164.922 464.221 166.632 463.41C173.31 460.739 173.988 450.691 173.988 450.691L183.994 450.033L186.008 418.639L163.961 427.309C163.961 427.309 158.047 458.068 156.033 462.074Z" fill="#92E3A9"/>
<path d="M127.119 553.884C120.789 557.248 114.804 561.224 109.249 565.755C110.128 568.86 111.19 571.911 112.429 574.891C119.912 592.655 127.882 597.997 138.121 597.912C136.555 595.102 135.174 592.191 133.987 589.2C129.642 577.923 127.317 565.968 127.119 553.884Z" fill="#263238" stroke="#263238" stroke-width="0.75" stroke-linecap="round" stroke-linejoin="round"/>
<path d="M160.888 536.374C160.314 536.371 159.752 536.214 159.26 535.92C158.767 535.625 158.363 535.204 158.09 534.699C157.704 533.967 157.621 533.112 157.859 532.319C158.097 531.526 158.636 530.859 159.362 530.46C159.87 530.184 201.122 504.619 235.294 486.452C235.663 486.256 236.066 486.134 236.482 486.094C236.898 486.054 237.318 486.096 237.717 486.218C238.117 486.34 238.489 486.54 238.811 486.805C239.134 487.071 239.401 487.398 239.597 487.766C239.793 488.135 239.915 488.539 239.955 488.955C239.995 489.371 239.953 489.791 239.831 490.19C239.709 490.59 239.509 490.961 239.244 491.284C238.978 491.606 238.651 491.873 238.283 492.07C204.132 510.215 162.902 535.759 162.393 536.035C161.929 536.276 161.41 536.393 160.888 536.374Z" fill="#263238" stroke="#263238" stroke-miterlimit="10"/>
<path d="M214.816 323.883L213.354 360.28C213.036 365.241 215.919 367.636 219.713 365.495L278.326 327.338C280.481 325.836 282.218 323.81 283.375 321.452C284.532 319.093 285.071 316.48 284.94 313.856L284.58 273.261C284.156 269.573 281.654 268.068 278.581 269.658C267.557 275.36 246.274 294.65 220.837 312.605C219.113 313.971 217.689 315.678 216.653 317.618C215.617 319.558 214.992 321.691 214.816 323.883Z" fill="#92E3A9" stroke="#263238" stroke-linecap="round" stroke-linejoin="round"/>
<path d="M254.414 313.623L283.053 320.618" stroke="#263238" stroke-linecap="round" stroke-linejoin="round"/>
<path d="M215.24 365.665L232.919 326.617" stroke="#263238" stroke-linecap="round" stroke-linejoin="round"/>
<path d="M215.155 322.675L241.144 325.918C243.836 326.321 247.186 324.095 249.624 320.237L283.541 271.672" stroke="#263238" stroke-linecap="round" stroke-linejoin="round"/>
<path d="M360.257 256.26L366.277 347.413C366.433 350.044 367.124 352.616 368.307 354.971C369.49 357.327 371.14 359.416 373.158 361.112C375.176 362.809 377.518 364.076 380.041 364.836C382.565 365.597 385.217 365.836 387.836 365.537L590.322 339.251C593.111 338.93 595.798 338.007 598.196 336.545C600.594 335.084 602.646 333.119 604.21 330.787C605.774 328.455 606.813 325.81 607.255 323.037C607.698 320.264 607.532 317.428 606.771 314.725L581.206 224.336C579.996 220.04 577.339 216.295 573.685 213.734C570.03 211.173 565.603 209.953 561.153 210.281C528.338 212.698 449.629 219.757 375.329 236.313C370.868 237.326 366.908 239.884 364.15 243.534C361.392 247.184 360.013 251.692 360.257 256.26Z" fill="#92E3A9" stroke="#263238" stroke-linecap="round" stroke-linejoin="round"/>
<path d="M510.765 284.518L603.21 328.313" stroke="#263238" stroke-linecap="round" stroke-linejoin="round"/>
<path d="M373.951 361.531L452.024 291.661" stroke="#263238" stroke-linecap="round" stroke-linejoin="round"/>
<path d="M360.936 253.865L472.968 299.929C477.175 301.647 481.79 302.107 486.253 301.253C490.716 300.398 494.835 298.267 498.109 295.117L577.963 219.715" stroke="#263238" stroke-linecap="round" stroke-linejoin="round"/>
<path d="M584.676 352.153C603.707 351.685 618.761 336.144 618.3 317.441C617.84 298.738 602.04 283.956 583.009 284.424C563.978 284.893 548.924 300.434 549.385 319.137C549.845 337.84 565.645 352.622 584.676 352.153Z" fill="#263238" stroke="#263238" stroke-width="0.75" stroke-linecap="round" stroke-linejoin="round"/>
<path d="M580.125 334.461H580.019C579.35 334.462 578.69 334.306 578.094 334.004C577.497 333.702 576.98 333.263 576.585 332.723L563.039 314.026C562.379 313.115 562.107 311.979 562.284 310.868C562.461 309.757 563.072 308.761 563.983 308.101C564.894 307.44 566.029 307.168 567.141 307.345C568.252 307.522 569.247 308.133 569.908 309.044L580.019 322.993L604.185 289.605C604.846 288.695 605.841 288.083 606.952 287.907C608.063 287.73 609.199 288.001 610.11 288.662C611.021 289.323 611.632 290.318 611.809 291.429C611.986 292.54 611.714 293.676 611.053 294.587L583.496 332.744C583.105 333.271 582.597 333.701 582.013 333.999C581.428 334.297 580.782 334.455 580.125 334.461Z" fill="white" stroke="#263238" stroke-linecap="round" stroke-linejoin="round"/>
<path d="M452.088 425.825C452.088 425.825 524.162 412.004 573.554 412.979L576.522 424.85C576.522 424.85 472.82 429.768 453.063 439.689L452.088 425.825Z" fill="#263238" stroke="#263238" stroke-width="0.75" stroke-linecap="round" stroke-linejoin="round"/>
<path d="M453.063 439.646L455.183 451.517C455.402 452.84 456.131 454.025 457.212 454.817C458.294 455.609 459.643 455.947 460.97 455.757C479.052 453.171 542.52 444.458 575.441 445.264C576.252 445.289 577.057 445.122 577.791 444.776C578.525 444.431 579.167 443.917 579.665 443.277C580.163 442.636 580.503 441.887 580.657 441.09C580.81 440.294 580.773 439.472 580.549 438.692L576.607 424.892" stroke="#263238" stroke-linecap="round" stroke-linejoin="round"/>
<path d="M190.057 418.681L189.654 369.713L192.092 319.368C192.11 318.886 191.982 318.41 191.726 318.002C191.469 317.594 191.096 317.273 190.654 317.08C190.212 316.888 189.722 316.834 189.249 316.924C188.776 317.014 188.34 317.245 188 317.587C178.885 326.914 163.283 341.032 158.662 352.606C152.663 367.593 145.562 441.363 145.562 441.363L190.057 418.681Z" fill="#263238" stroke="#263238" stroke-width="0.75" stroke-linecap="round" stroke-linejoin="round"/>
<path d="M133.606 408.845H126.504C122.887 408.845 119.954 411.778 119.954 415.396V451.984C119.954 455.601 122.887 458.534 126.504 458.534H133.606C137.223 458.534 140.156 455.601 140.156 451.984V415.396C140.156 411.778 137.223 408.845 133.606 408.845Z" fill="#263238" stroke="#263238" stroke-width="0.75" stroke-linecap="round" stroke-linejoin="round"/>
<path d="M138.079 374.674C141.44 375.319 144.723 376.321 147.872 377.663C150.483 378.948 152.856 380.668 154.889 382.75L165.488 368.738C165.488 368.738 149.95 362.23 147.003 358.266L144.078 354.281L138.079 374.674Z" fill="white"/>
<g style="mix-blend-mode:multiply" opacity="0.5">
<path d="M146.982 358.266L144.247 354.472L143.929 354.684L138.079 374.61C138.079 374.61 139.202 374.822 140.792 375.204L155.949 364.223C152.636 362.774 149.602 360.758 146.982 358.266Z" fill="#92E3A9"/>
</g>
<path d="M138.079 374.674C141.44 375.319 144.723 376.321 147.872 377.663C150.483 378.948 152.856 380.668 154.889 382.75L165.488 368.738C165.488 368.738 149.95 362.23 147.003 358.266L144.078 354.281L138.079 374.674Z" stroke="#263238" stroke-width="0.75" stroke-linecap="round" stroke-linejoin="round"/>
<path d="M160.464 362.782L147.512 379.295L149.271 384.913L169.007 364.414L160.464 362.782Z" fill="#92E3A9" stroke="#263238" stroke-linecap="round" stroke-linejoin="round"/>
<path d="M139.732 316.124C130.977 309.341 108.168 313.665 103.695 329.734C100.939 339.633 102.465 354.472 102.465 354.472L128.455 348.96L130.574 352.161C134.814 358.521 143.993 354.281 146.367 352.161C147.66 351.038 147.575 347.731 147.236 344.996L148.275 344.763C148.275 344.763 148.466 322.929 139.732 316.124Z" fill="#263238" stroke="#263238" stroke-width="0.75" stroke-linecap="round" stroke-linejoin="round"/>
<path d="M130.023 347.01C118.616 345.739 107.07 346.836 96.1059 350.232C79.1473 355.913 76.5399 360.831 88.6865 360.535C100.833 360.238 130.023 347.01 130.023 347.01Z" fill="#263238" stroke="#263238" stroke-width="0.75" stroke-linecap="round" stroke-linejoin="round"/>
<path d="M109.079 340.841C111.058 340.841 112.662 338.649 112.662 335.945C112.662 333.24 111.058 331.048 109.079 331.048C107.101 331.048 105.497 333.24 105.497 335.945C105.497 338.649 107.101 340.841 109.079 340.841Z" fill="#92E3A9"/>
<path d="M189.654 369.713C189.654 369.713 166.442 363.82 159.298 369.247C152.154 374.674 150.331 383.641 152.62 394.515C154.91 405.39 160.485 433.987 160.485 433.987L190.056 418.681L189.654 369.713Z" fill="#263238" stroke="#263238" stroke-width="0.75" stroke-linecap="round" stroke-linejoin="round"/>
<path d="M152.811 429.429C152.811 429.429 151.561 440.41 150.098 441.957C148.635 443.504 110.055 411.092 107.701 408.04C105.348 404.987 106.96 394.091 107.701 390.678C108.443 387.266 107.193 385.4 103.462 387.753C99.731 390.106 100.727 399.9 100.727 399.9C100.727 399.9 89.3438 397.165 87.0756 396.847C84.8074 396.529 82.836 399.349 83.1751 401.596C83.5143 403.843 86.5033 404.033 86.5033 404.033C85.7386 407.287 85.9524 410.694 87.118 413.827C89.1106 417.939 91.3577 420.526 95.5973 421.543C99.9716 422.225 104.4 422.495 108.825 422.349C108.825 422.349 128.539 441.13 134.263 448.147C139.986 455.164 152.048 464.703 158.047 462.986C164.046 461.269 169.77 431.315 169.77 431.315L152.811 429.429Z" fill="white"/>
<g style="mix-blend-mode:multiply" opacity="0.5">
<path d="M150.098 441.957L161.376 445.709C161.733 448.075 161.233 450.49 159.966 452.519C158.699 454.549 156.748 456.058 154.465 456.775C149.483 458.428 140.538 452.768 134.178 447.998L134.369 448.232C140.199 455.269 152.154 464.787 158.153 463.07C164.153 461.353 169.876 431.4 169.876 431.4L152.811 429.28C152.811 429.28 151.561 440.409 150.098 441.957Z" fill="#92E3A9"/>
</g>
<path d="M152.811 429.429C152.811 429.429 151.561 440.41 150.098 441.957C148.635 443.504 110.054 411.092 107.701 408.04C105.348 404.987 106.96 394.091 107.701 390.678C108.443 387.266 107.193 385.4 103.462 387.753C99.731 390.106 100.727 399.9 100.727 399.9C100.727 399.9 89.3438 397.165 87.0756 396.847C84.8074 396.529 82.836 399.349 83.1751 401.596C83.5143 403.843 86.5033 404.033 86.5033 404.033C85.7386 407.287 85.9524 410.694 87.118 413.827C89.1106 417.939 91.3577 420.526 95.5973 421.543C99.9716 422.225 104.4 422.495 108.825 422.349C108.825 422.349 128.539 441.13 134.263 448.147C139.986 455.164 152.048 464.703 158.047 462.986C164.046 461.269 169.77 431.315 169.77 431.315L152.811 429.429Z" stroke="#263238" stroke-width="0.75" stroke-linecap="round" stroke-linejoin="round"/>
<path d="M114.252 413.996L108.825 422.433L111.602 424.32L117.156 416.371L114.252 413.996Z" fill="#263238" stroke="#263238" stroke-miterlimit="10"/>
<path d="M112.386 421.946C113.557 421.946 114.506 420.997 114.506 419.826C114.506 418.655 113.557 417.706 112.386 417.706C111.216 417.706 110.267 418.655 110.267 419.826C110.267 420.997 111.216 421.946 112.386 421.946Z" fill="white" stroke="#263238" stroke-width="0.75" stroke-linecap="round" stroke-linejoin="round"/>
<path d="M107.193 357.185C107.193 357.185 108.486 360.386 110.648 366.004C112.81 371.621 124.427 383.471 130.108 384.149C135.789 384.828 142.594 364.181 143.675 359.92C144.035 358.521 144.396 356.274 144.396 356.274C144.396 356.274 151.539 352.903 149.886 348.833C148.232 344.763 144.883 342.898 143.293 344.148C141.703 345.399 141.428 350.677 139.054 350.72C136.679 350.762 135.386 350.02 133.288 347.222C131.189 344.424 109.44 350.232 107.193 357.185Z" fill="white"/>
<path opacity="0.5" d="M133.245 347.222C131.125 344.445 109.44 350.254 107.193 357.185L108.422 360.323C116.712 355.323 125.72 351.627 135.132 349.363C134.429 348.719 133.796 348.001 133.245 347.222Z" fill="#92E3A9"/>
<g style="mix-blend-mode:multiply">
<g style="mix-blend-mode:multiply" opacity="0.5">
<path d="M149.61 348.261C147.872 344.615 144.798 342.961 143.251 344.148C142.281 345.414 141.561 346.853 141.131 348.388C143.947 348.073 146.786 348.03 149.61 348.261Z" fill="#92E3A9"/>
</g>
</g>
<path d="M107.193 357.185C107.193 357.185 108.486 360.386 110.648 366.004C112.81 371.621 124.427 383.471 130.108 384.149C135.789 384.828 142.594 364.181 143.675 359.92C144.035 358.521 144.396 356.274 144.396 356.274C144.396 356.274 151.539 352.903 149.886 348.833C148.232 344.763 144.883 342.898 143.293 344.148C141.703 345.399 141.428 350.677 139.054 350.72C136.679 350.762 135.386 350.02 133.288 347.222C131.189 344.424 109.44 350.232 107.193 357.185Z" stroke="#263238" stroke-width="0.75" stroke-linecap="round" stroke-linejoin="round"/>
<path d="M114.888 358.712C115.269 360.005 115.142 361.192 114.633 361.34C114.124 361.488 113.382 360.556 113.001 359.22C112.619 357.885 112.747 356.74 113.255 356.592C113.764 356.443 114.506 357.461 114.888 358.712Z" fill="#263238" stroke="#263238" stroke-miterlimit="10"/>
<path d="M110.945 355.108C113.913 354.26 115.184 356.486 115.545 358.542L116.096 360.98L117.94 370.413L120.738 369.226" stroke="#263238" stroke-width="0.5" stroke-linecap="round" stroke-linejoin="round"/>
<path d="M123.028 355.828C123.673 355.121 124.475 354.576 125.37 354.237C126.265 353.898 127.228 353.775 128.179 353.878" stroke="#263238" stroke-width="0.5" stroke-linecap="round" stroke-linejoin="round"/>
<path d="M125.487 349.957C124.281 350.209 123.174 350.806 122.301 351.675C121.428 352.544 120.826 353.649 120.569 354.853" stroke="#263238" stroke-width="0.5" stroke-linecap="round" stroke-linejoin="round"/>
<path d="M123.261 372.278C123.261 372.278 129.408 371.049 129.896 366.64" stroke="#263238" stroke-width="0.5" stroke-linecap="round" stroke-linejoin="round"/>
<path d="M175.451 445.327L144.417 436.679C144.417 436.679 147.152 383.683 151.942 374.716C159.404 360.789 176.511 367.064 179.733 384.573C182.743 401.108 175.451 445.327 175.451 445.327Z" fill="#92E3A9" stroke="#263238" stroke-linecap="round" stroke-linejoin="round"/>
<path d="M145.159 430.786C145.159 430.786 162.117 434.686 172.441 438.078" stroke="#263238" stroke-width="0.5" stroke-linecap="round" stroke-linejoin="round"/>
<path d="M172.017 365.453C172.017 365.453 182.107 366.237 188.7 371.664" stroke="#92E3A9" stroke-width="0.5" stroke-linecap="round" stroke-linejoin="round"/>
<path d="M349.828 501.015C349.828 501.015 304.633 516.956 300.499 521.302C296.366 525.648 296.79 542.606 306.541 550.852C316.292 559.098 385.801 540.402 435.49 534.954C485.178 529.506 594.264 521.493 638.781 519.331C683.297 517.168 703.541 523.04 707.442 509.155C711.342 495.271 710.855 480.432 702.375 477.422C693.896 474.411 539.403 449.673 349.828 501.015Z" fill="#263238" stroke="#263238" stroke-width="0.75" stroke-linecap="round" stroke-linejoin="round"/>
<path d="M297.277 530.566C297.277 530.566 299.397 548.944 310.696 551.764C321.994 554.583 456.264 529.145 535.397 526.326C614.53 523.507 683.785 521.387 683.785 521.387" stroke="white" stroke-width="0.5" stroke-linecap="round" stroke-linejoin="round"/>
<path d="M362.865 539.893C415.351 527.174 523.314 509.198 704.983 514.307" stroke="white" stroke-width="0.5" stroke-linecap="round" stroke-linejoin="round"/>
<path d="M319.832 551.085C319.832 551.085 331.894 548.16 350.23 543.157" stroke="white" stroke-width="0.5" stroke-linecap="round" stroke-linejoin="round"/>
<path d="M330.898 553.184C331.468 561.064 331.255 568.982 330.262 576.82" stroke="white" stroke-width="0.5" stroke-linecap="round" stroke-linejoin="round"/>
<path d="M328.969 214.203C328.969 214.203 318.857 226.053 318.073 236.673" stroke="#263238" stroke-width="0.75" stroke-linecap="round" stroke-linejoin="round"/>
<path d="M317.013 245.237C317.013 245.237 309.402 366.3 329.541 495.143" stroke="#263238" stroke-width="0.75" stroke-linecap="round" stroke-linejoin="round"/>
<path d="M319.408 385.124C319.408 385.124 302.98 390.848 302.768 398.267C302.216 418.215 304.315 460.781 308.661 464.915C313.006 469.048 326.51 458.11 326.51 458.11C326.51 458.11 345.588 459.763 347.708 455.481C349.828 451.199 341.878 390.933 340.691 385.676C339.504 380.418 319.408 385.124 319.408 385.124Z" fill="#92E3A9" stroke="#263238" stroke-linecap="round" stroke-linejoin="round"/>
<path d="M662.565 413.827C666.841 415.916 671.488 417.141 676.238 417.431C670.981 397.674 665.024 375.67 658.877 353.709C653.323 353.327 646.158 353.327 646.306 355.829C646.412 360.111 657.202 410.732 662.565 413.827Z" fill="#92E3A9" stroke="#263238" stroke-linecap="round" stroke-linejoin="round"/>
<path d="M317.055 391.357C317.055 391.357 317.776 429.514 320.595 444.352" stroke="#263238" stroke-width="0.75" stroke-linecap="round" stroke-linejoin="round"/>
<path d="M515.216 400.175C515.216 400.175 609.803 384.934 720.012 404.415" stroke="#263238" stroke-linecap="round" stroke-linejoin="round"/>
<path d="M803.173 459.933C809.681 461.883 816.083 463.94 822.252 466.144" stroke="#263238" stroke-linecap="round" stroke-linejoin="round"/>
<path d="M633.354 431.146C633.354 431.146 708.353 435.703 780.173 453.658" stroke="#263238" stroke-linecap="round" stroke-linejoin="round"/>
<path d="M405.092 605.798C466.845 596.361 529.585 595.242 591.636 602.47" stroke="#263238" stroke-linecap="round" stroke-linejoin="round"/>
<path d="M397.333 595.814C397.333 595.814 441.722 590.26 456.158 589.158" stroke="#263238" stroke-linecap="round" stroke-linejoin="round"/>
<path d="M694.617 184.102C700.976 185.013 707.336 186.221 713.102 187.599" stroke="#263238" stroke-linecap="round" stroke-linejoin="round"/>
<path d="M603.231 182.003C629.351 180.158 655.573 180.335 681.665 182.533" stroke="#263238" stroke-linecap="round" stroke-linejoin="round"/>
<path d="M261.219 438.798C261.219 438.798 324.559 408.803 416.199 400.472" stroke="#263238" stroke-linecap="round" stroke-linejoin="round"/>
<path d="M367.889 383.789C367.889 383.789 406.236 373.805 464.574 370.455" stroke="#263238" stroke-linecap="round" stroke-linejoin="round"/>
<path d="M260.18 595.58C267.878 609.368 280.3 619.908 295.157 625.258" stroke="#263238" stroke-linecap="round" stroke-linejoin="round"/>
<path d="M258.061 605.12C258.061 605.12 267.6 619.959 280.319 626.318" stroke="#263238" stroke-linecap="round" stroke-linejoin="round"/>
<path d="M570.734 552.124C570.734 552.124 577.094 581.802 602.532 594.521" stroke="#263238" stroke-linecap="round" stroke-linejoin="round"/>
<path d="M573.914 578.622C578.955 586.005 585.919 591.869 594.052 595.581" stroke="#263238" stroke-linecap="round" stroke-linejoin="round"/>
<path d="M154.528 635.772C154.528 635.772 160.888 646.372 183.146 646.372" stroke="#263238" stroke-linecap="round" stroke-linejoin="round"/>
<path d="M150.289 642.132C158.398 648.876 168.393 652.948 178.906 653.791" stroke="#263238" stroke-linecap="round" stroke-linejoin="round"/>
<path d="M436.847 615.973C380.547 619.036 324.662 627.397 269.932 640.945L271.246 642.916C271.246 642.916 317.882 633.017 404.074 654.215C490.266 675.413 495.947 692.372 590.619 692.372C685.29 692.372 777.163 669.774 777.163 669.774L765.674 663.415C680.669 627.442 564.163 608.851 436.847 615.973Z" fill="#92E3A9"/>
<path opacity="0.5" d="M436.847 615.973C380.547 619.036 324.662 627.397 269.932 640.945L271.246 642.916C271.246 642.916 317.882 633.017 404.074 654.215C490.266 675.413 495.947 692.372 590.619 692.372C685.29 692.372 777.163 669.774 777.163 669.774L765.674 663.415C680.669 627.442 564.163 608.851 436.847 615.973Z" fill="white"/>
<path d="M229.443 664.475C229.443 664.475 340.734 647.516 437.186 712.171" stroke="#263238" stroke-linecap="round" stroke-linejoin="round"/>
<path d="M346.033 688.853C346.033 688.853 391.609 702.632 419.167 732.309" stroke="#263238" stroke-linecap="round" stroke-linejoin="round"/>
<path d="M615.251 634.797C615.251 634.797 679.905 641.157 738.2 676.134" stroke="#263238" stroke-linecap="round" stroke-linejoin="round"/>
<path d="M816.846 689.573C828.489 696.698 839.572 704.699 850 713.506" stroke="#263238" stroke-linecap="round" stroke-linejoin="round"/>
<path d="M58.3943 739.58C135.662 673.866 275.273 625.11 436.846 615.973C584.322 607.6 717.341 634.013 803.576 681.688" stroke="#263238" stroke-linecap="round" stroke-linejoin="round"/>
<path d="M529.398 633.737C529.398 633.737 596.172 636.917 640.689 651.756" stroke="#263238" stroke-linecap="round" stroke-linejoin="round"/>
<path d="M226.645 130.491C226.645 130.491 224.525 101.174 181.598 100.114C138.672 99.0543 150.161 129.453 138.651 136.787C127.14 144.122 123.982 132.547 112.45 139.924C100.918 147.301 106.09 161.928 96.7419 164.027C87.3935 166.126 74.7382 154.594 63.2275 161.907C51.7169 169.22 51.6957 175.516 46.4597 175.516C41.2238 175.516 30.7518 171.277 24.4771 175.516C18.2025 179.756 10.8467 184.886 10.8467 184.886H275.825C275.825 184.886 278.962 175.453 267.345 169.178C255.729 162.903 250.577 168.118 246.401 162.819C242.225 157.519 258.061 144.122 226.645 130.491Z" fill="#92E3A9"/>
<path d="M384.084 18.2891C384.084 18.2891 382.812 0.652129 356.993 0.0161823C331.173 -0.619765 338.084 17.6743 331.152 22.0835C324.22 26.4928 322.333 19.5609 315.402 23.9702C308.47 28.3794 311.628 37.1979 305.947 38.4486C300.266 39.6993 292.72 32.7887 285.788 37.1979C278.856 41.6071 278.856 45.3804 275.697 45.3804C272.539 45.3804 266.243 42.879 262.47 45.3804C258.696 47.8818 254.287 51.0615 254.287 51.0615H413.698C413.698 51.0615 415.584 45.3804 408.653 41.6071C401.721 37.8338 398.583 40.9712 396.061 37.8338C393.538 34.6965 402.993 26.4928 384.084 18.2891Z" fill="#92E3A9"/>
<path opacity="0.7" d="M226.645 130.491C226.645 130.491 224.525 101.174 181.598 100.114C138.672 99.0543 150.161 129.453 138.651 136.787C127.14 144.122 123.982 132.547 112.45 139.924C100.918 147.301 106.09 161.928 96.7419 164.027C87.3935 166.126 74.7382 154.594 63.2275 161.907C51.7169 169.22 51.6957 175.516 46.4597 175.516C41.2238 175.516 30.7518 171.277 24.4771 175.516C18.2025 179.756 10.8467 184.886 10.8467 184.886H275.825C275.825 184.886 278.962 175.453 267.345 169.178C255.729 162.903 250.577 168.118 246.401 162.819C242.225 157.519 258.061 144.122 226.645 130.491Z" fill="white"/>
<path opacity="0.8" d="M384.084 18.2891C384.084 18.2891 382.812 0.652129 356.993 0.0161823C331.173 -0.619765 338.084 17.6743 331.152 22.0835C324.22 26.4928 322.333 19.5609 315.402 23.9702C308.47 28.3794 311.628 37.1979 305.947 38.4486C300.266 39.6993 292.72 32.7887 285.788 37.1979C278.856 41.6071 278.856 45.3804 275.697 45.3804C272.539 45.3804 266.243 42.879 262.47 45.3804C258.696 47.8818 254.287 51.0615 254.287 51.0615H413.698C413.698 51.0615 415.584 45.3804 408.653 41.6071C401.721 37.8338 398.583 40.9712 396.061 37.8338C393.538 34.6965 402.993 26.4928 384.084 18.2891Z" fill="white"/>
</svg>
