<svg width="851" height="741" fill="none" xmlns="http://www.w3.org/2000/svg"><path d="M659.428 443.504v-.127c-17.298-5.745-43.838-3.794-47.781-1.441a38.576 38.576 0 00-10.599 10.599 125.713 125.713 0 00-19.672 43.859l-188.134 17.489c-6.932-14.966-17.383-28.385-27.876-36.483a30.346 30.346 0 00-10.175-5.617 16.1 16.1 0 00-4.918.169c-6.826-19.778-16.493-38.856-28.576-40.064-25.437-2.544-69.826 5.978-81.931 30.652-12.104 24.675-15.898 86.277-15.898 86.277l-8.48 8.479a98.524 98.524 0 00-25.268-31.267 29.66 29.66 0 00-10.175-5.617c-2.12-.594-10.599.72-19.481 3.624-.361-.339-.7-.678-1.081-.996-8.48-7.101-25.862-10.981-35.571 7.123-9.709 18.103 1.95 52.381 7.759 60.139A38.994 38.994 0 00142 600.329c6.847 16.959 19.078 38.581 37.903 39.577a45.04 45.04 0 0034.828-13.694c12.21-12.719 13.525-30.589 8.925-48.078l1.971-2.883s4.388 6.254 21.198 3.731a25.125 25.125 0 0013.292-5.511c7.885 20.117 20.626 40.276 40.87 43.287a61.2 61.2 0 0048.989-13.949 54.282 54.282 0 0010.069-11.553 44.944 44.944 0 0029.89-13.694 41.88 41.88 0 0011.319-27.664l25.036-2.925a109.571 109.571 0 0050.049 9.37 71.124 71.124 0 0044.071-19.079l57.044-4.875c.954 22.109 8.903 42.396 27.558 53.568a57.563 57.563 0 0047.908 5.108c26.307-8.818 32.539-47.908 34.235-71.671 2.629-38.157-9.539-70.484-27.727-75.89z" fill="#263238" stroke="#263238" stroke-width=".75" stroke-linecap="round" stroke-linejoin="round"/><path d="M311.141 604.484a23.646 23.646 0 01-8.162 6.635M321.422 554.244s2.523 27.558-6.868 45.046M328.863 584.685c-2.396 10.599-7.165 20.88-16.408 25.438M340.373 552.145s4.24 45.81-18.421 56.875M349.87 551.085s4.24 45.831-18.442 56.875M635.855 583.201a29.427 29.427 0 01-8.903 7.525M652.899 525.987s-1.357 31.352-12.995 51.3M655.93 560.709c-3.815 12.062-9.921 23.764-19.566 28.851M671.723 523.655s-2.268 52.232-25.947 64.739M681.177 522.51s-2.268 52.212-25.947 64.74M185.88 632.826a22.936 22.936 0 01-6.974 6.868M189.23 588.246s5.978 23.318-.763 39.62M200.316 613.281c-.953 9.433-4.239 18.93-12.443 24.145M207.121 583.71s9.963 38.686-10.302 51.426M216.067 581.42s9.984 38.687-10.302 51.448" stroke="#fff" stroke-width=".5" stroke-linecap="round" stroke-linejoin="round"/><path d="M289.137 538.536c5.045 28.851 1.887 53.526-7.017 55.116-8.903 1.589-20.244-20.584-25.289-49.435-5.045-28.851-1.887-53.525 7.038-55.115 8.924-1.59 20.223 20.562 25.268 49.434z" fill="#92E3A9" stroke="#263238" stroke-linecap="round" stroke-linejoin="round"/><path d="M284.643 539.151c1.399 11.065.106 20.329-2.925 20.711-3.032.381-6.593-8.268-7.992-19.333-1.399-11.066 0-20.351 2.925-20.732 2.926-.382 6.593 8.288 7.992 19.354z" fill="#92E3A9" stroke="#263238" stroke-linecap="round" stroke-linejoin="round"/><path d="M263.381 512.695a72.085 72.085 0 011.76-11.023M277.436 583.243a140.875 140.875 0 01-12.465-37.16 134.244 134.244 0 01-1.929-27.664" stroke="#263238" stroke-width=".75" stroke-linecap="round" stroke-linejoin="round"/><path d="M164.382 624.279c6.408-1.776 6.941-20.035 1.191-40.783s-15.606-36.128-22.014-34.352c-6.408 1.776-6.942 20.035-1.192 40.783s15.606 36.128 22.015 34.352z" fill="#92E3A9" stroke="#263238" stroke-linecap="round" stroke-linejoin="round"/><path d="M163.474 584.324c2.014 7.886 1.908 14.712-.254 15.263-2.163.551-5.512-5.405-7.526-13.27-2.014-7.865-1.908-14.733.255-15.263 2.162-.53 5.511 5.385 7.525 13.27zM145.71 567.09a52.822 52.822 0 01.275-8.14M162.223 616.885a102.766 102.766 0 01-12.358-25.777 98.03 98.03 0 01-3.901-19.842" stroke="#263238" stroke-width=".75" stroke-linecap="round" stroke-linejoin="round"/><path d="M618.791 229.402c-22.343-46.106-31.988-50.112-46.848-50.875-14.86-.764-49.943-5.13-89.033 1.123 0 0-109.044-1.908-193.413 49.201-88.078 53.356-130.941 100.225-136.94 124.519-5.999 24.293-26.477 87.591-36.186 123.882-9.708 36.291-16.322 68.258-3.942 97.639 7.483 17.764 15.453 23.106 25.692 23.021a73.721 73.721 0 01-4.134-8.712c-10.175-25.205-8.945-61.263 2.671-63.595 11.617-2.332 18.549 21.813 25.565 48.141a104.751 104.751 0 005.639 16.959c17.361-6.55 45.173-21.198 82.143-36.419a237.779 237.779 0 01-.233-69.784c5.469-36.186 28.596-44.177 38.666-22.152 8.33 18.145 11.425 58.761 12.252 72.455 14.839-5.108 27.261-8.479 34.914-8.945 0 0 126.511-28.576 219.762-30.865 93.251-2.289 139.908-4.515 139.908-4.515s-54.14-215.056-76.483-261.078z" fill="#fff"/><path d="M320.658 451.857s-12.824 17.552-28.426 21.304c5.511 20.223 7.779 50.155 8.479 61.475 13.249-4.558 24.505-7.759 32.221-8.692a1348.784 1348.784 0 001.802-10.832l-14.076-63.255z" fill="#92E3A9"/><path opacity=".2" d="M162.774 575.654c5.893.594 9.815 3.138 21.792.149 21.198-5.279 5.957-46.191 41.125-62.896a59.198 59.198 0 0121.876-6.147 214.842 214.842 0 012.12-22.364 65.579 65.579 0 016.359-20.923c-9.602-2.946-11.341-5.766-27.706 2.014-35.189 16.704-29.91 59.8-51.003 65.079-16.831 4.239-17.764-2.523-30.546.614 5.978 8.48 10.599 24.993 15.262 42.397.361.784.53 1.357.721 2.077z" fill="#92E3A9"/><g style="mix-blend-mode:multiply"><path d="M128.158 539.426c-9.858 6.784-15.73 16.959-19.079 25.544a84.528 84.528 0 003.349 9.963c7.483 17.765 15.454 23.106 25.693 23.022a73.652 73.652 0 01-4.134-8.713c-6.465-16.047-8.204-36.461-5.829-49.816z" fill="#92E3A9" opacity=".2"/></g><path d="M571.942 178.527l-3.836-.234c-154.599 39.556-217.494 225.889-239.138 315.684a871.873 871.873 0 003.816 26.201c2.628-.508.805 5.682 2.819 5.576 0 0 126.511-28.576 219.762-30.865 93.251-2.289 139.909-4.515 139.909-4.515s-54.141-214.95-76.483-260.972c-22.343-46.021-31.989-50.197-46.849-50.875z" fill="#92E3A9" opacity=".2"/><path d="M618.791 229.402c-22.343-46.106-31.988-50.112-46.848-50.875-14.86-.764-49.943-5.13-89.033 1.123 0 0-109.044-1.908-193.413 49.201-88.078 53.356-130.941 100.225-136.94 124.519-5.999 24.293-26.477 87.591-36.186 123.882-9.708 36.291-16.322 68.258-3.942 97.639 7.483 17.764 15.453 23.106 25.692 23.021a73.721 73.721 0 01-4.134-8.712c-10.175-25.205-8.945-61.263 2.671-63.595 11.617-2.332 18.549 21.813 25.565 48.141a104.751 104.751 0 005.639 16.959c17.361-6.55 45.173-21.198 82.143-36.419a237.779 237.779 0 01-.233-69.784c5.469-36.186 28.596-44.177 38.666-22.152 8.33 18.145 11.425 58.761 12.252 72.455 14.839-5.108 27.261-8.479 34.914-8.945 0 0 126.511-28.576 219.762-30.865 93.251-2.289 139.908-4.515 139.908-4.515s-54.14-215.056-76.483-261.078z" stroke="#263238" stroke-linecap="round" stroke-linejoin="round"/><path opacity=".2" d="M156.033 462.074a9.922 9.922 0 0010.599 1.336c6.678-2.671 7.356-12.719 7.356-12.719l10.006-.658 2.014-31.394-22.047 8.67s-5.914 30.759-7.928 34.765z" fill="#92E3A9"/><path d="M127.119 553.884a109.778 109.778 0 00-17.87 11.871 81.925 81.925 0 003.18 9.136c7.483 17.764 15.453 23.106 25.692 23.021a73.88 73.88 0 01-4.134-8.712 102.919 102.919 0 01-6.868-35.316z" fill="#263238" stroke="#263238" stroke-width=".75" stroke-linecap="round" stroke-linejoin="round"/><path d="M160.888 536.374a3.206 3.206 0 01-2.798-1.675 3.157 3.157 0 011.272-4.239c.508-.276 41.76-25.841 75.932-44.008a3.18 3.18 0 014.537 3.738 3.194 3.194 0 01-1.548 1.88c-34.151 18.145-75.381 43.689-75.89 43.965a3.028 3.028 0 01-1.505.339z" fill="#263238" stroke="#263238" stroke-miterlimit="10"/><path d="M214.816 323.883l-1.462 36.397c-.318 4.961 2.565 7.356 6.359 5.215l58.613-38.157a15.493 15.493 0 006.614-13.482l-.36-40.595c-.424-3.688-2.926-5.193-5.999-3.603-11.024 5.702-32.307 24.992-57.744 42.947a16.03 16.03 0 00-6.021 11.278z" fill="#92E3A9" stroke="#263238" stroke-linecap="round" stroke-linejoin="round"/><path d="M254.414 313.623l28.639 6.995M215.24 365.665l17.679-39.048M215.155 322.675l25.989 3.243c2.692.403 6.042-1.823 8.48-5.681l33.917-48.565" stroke="#263238" stroke-linecap="round" stroke-linejoin="round"/><path d="M360.257 256.26l6.02 91.153a19.396 19.396 0 0021.559 18.124l202.486-26.286a19.384 19.384 0 0013.888-8.464 19.397 19.397 0 002.561-16.062l-25.565-90.389a19.354 19.354 0 00-20.053-14.055c-32.815 2.417-111.524 9.476-185.824 26.032a19.396 19.396 0 00-15.072 19.947z" fill="#92E3A9" stroke="#263238" stroke-linecap="round" stroke-linejoin="round"/><path d="M510.765 284.518l92.445 43.795M373.951 361.531l78.073-69.87M360.936 253.865l112.032 46.064a23.472 23.472 0 0025.141-4.812l79.854-75.402" stroke="#263238" stroke-linecap="round" stroke-linejoin="round"/><path d="M584.676 352.153c19.031-.468 34.085-16.009 33.624-34.712-.46-18.703-16.26-33.485-35.291-33.017-19.031.469-34.085 16.01-33.624 34.713.46 18.703 16.26 33.485 35.291 33.016z" fill="#263238" stroke="#263238" stroke-width=".75" stroke-linecap="round" stroke-linejoin="round"/><path d="M580.125 334.461h-.106a4.245 4.245 0 01-3.434-1.738l-13.546-18.697a4.245 4.245 0 01.944-5.925 4.24 4.24 0 015.925.943l10.111 13.949 24.166-33.388a4.242 4.242 0 016.868 4.982l-27.557 38.157a4.244 4.244 0 01-3.371 1.717z" fill="#fff" stroke="#263238" stroke-linecap="round" stroke-linejoin="round"/><path d="M452.088 425.825s72.074-13.821 121.466-12.846l2.968 11.871s-103.702 4.918-123.459 14.839l-.975-13.864z" fill="#263238" stroke="#263238" stroke-width=".75" stroke-linecap="round" stroke-linejoin="round"/><path d="M453.063 439.646l2.12 11.871a5.13 5.13 0 005.787 4.24c18.082-2.586 81.55-11.299 114.471-10.493a5.152 5.152 0 005.108-6.572l-3.942-13.8" stroke="#263238" stroke-linecap="round" stroke-linejoin="round"/><path d="M190.057 418.681l-.403-48.968 2.438-50.345a2.402 2.402 0 00-1.438-2.288 2.401 2.401 0 00-2.654.507c-9.115 9.327-24.717 23.445-29.338 35.019-5.999 14.987-13.1 88.757-13.1 88.757l44.495-22.682zM133.606 408.845h-7.102a6.55 6.55 0 00-6.55 6.551v36.588a6.55 6.55 0 006.55 6.55h7.102a6.55 6.55 0 006.55-6.55v-36.588a6.55 6.55 0 00-6.55-6.551z" fill="#263238" stroke="#263238" stroke-width=".75" stroke-linecap="round" stroke-linejoin="round"/><path d="M138.079 374.674a48.104 48.104 0 019.793 2.989 25.617 25.617 0 017.017 5.087l10.599-14.012s-15.538-6.508-18.485-10.472l-2.925-3.985-5.999 20.393z" fill="#fff"/><path d="M146.982 358.266l-2.735-3.794-.318.212-5.85 19.926s1.123.212 2.713.594l15.157-10.981a31.084 31.084 0 01-8.967-5.957z" fill="#92E3A9" opacity=".5"/><path d="M138.079 374.674a48.104 48.104 0 019.793 2.989 25.617 25.617 0 017.017 5.087l10.599-14.012s-15.538-6.508-18.485-10.472l-2.925-3.985-5.999 20.393z" stroke="#263238" stroke-width=".75" stroke-linecap="round" stroke-linejoin="round"/><path d="M160.464 362.782l-12.952 16.513 1.759 5.618 19.736-20.499-8.543-1.632z" fill="#92E3A9" stroke="#263238" stroke-linecap="round" stroke-linejoin="round"/><path d="M139.732 316.124c-8.755-6.783-31.564-2.459-36.037 13.61-2.756 9.899-1.23 24.738-1.23 24.738l25.99-5.512 2.119 3.201c4.24 6.36 13.419 2.12 15.793 0 1.293-1.123 1.208-4.43.869-7.165l1.039-.233s.191-21.834-8.543-28.639z" fill="#263238" stroke="#263238" stroke-width=".75" stroke-linecap="round" stroke-linejoin="round"/><path d="M130.023 347.01a83.413 83.413 0 00-33.917 3.222c-16.959 5.681-19.566 10.599-7.42 10.303 12.147-.297 41.337-13.525 41.337-13.525z" fill="#263238" stroke="#263238" stroke-width=".75" stroke-linecap="round" stroke-linejoin="round"/><path d="M109.079 340.841c1.979 0 3.583-2.192 3.583-4.896 0-2.705-1.604-4.897-3.583-4.897-1.978 0-3.582 2.192-3.582 4.897 0 2.704 1.604 4.896 3.582 4.896z" fill="#92E3A9"/><path d="M189.654 369.713s-23.212-5.893-30.356-.466c-7.144 5.427-8.967 14.394-6.678 25.268 2.29 10.875 7.865 39.472 7.865 39.472l29.571-15.306-.402-48.968z" fill="#263238" stroke="#263238" stroke-width=".75" stroke-linecap="round" stroke-linejoin="round"/><path d="M152.811 429.429s-1.25 10.981-2.713 12.528c-1.463 1.547-40.043-30.865-42.397-33.917-2.353-3.053-.741-13.949 0-17.362.742-3.412-.508-5.278-4.239-2.925-3.731 2.353-2.735 12.147-2.735 12.147s-11.383-2.735-13.651-3.053c-2.269-.318-4.24 2.502-3.9 4.749.338 2.247 3.327 2.437 3.327 2.437a16.96 16.96 0 00.615 9.794c1.993 4.112 4.24 6.699 8.48 7.716 4.374.682 8.802.952 13.227.806 0 0 19.714 18.781 25.438 25.798 5.723 7.017 17.785 16.556 23.784 14.839 5.999-1.717 11.723-31.671 11.723-31.671l-16.959-1.886z" fill="#fff"/><path d="M150.098 441.957l11.278 3.752a10.03 10.03 0 01-6.911 11.066c-4.982 1.653-13.927-4.007-20.287-8.777l.191.234c5.83 7.037 17.785 16.555 23.784 14.838 6-1.717 11.723-31.67 11.723-31.67l-17.065-2.12s-1.25 11.129-2.713 12.677z" fill="#92E3A9" opacity=".5"/><path d="M152.811 429.429s-1.25 10.981-2.713 12.528c-1.463 1.547-40.044-30.865-42.397-33.917-2.353-3.053-.741-13.949 0-17.362.742-3.412-.508-5.278-4.239-2.925-3.731 2.353-2.735 12.147-2.735 12.147s-11.383-2.735-13.651-3.053c-2.269-.318-4.24 2.502-3.9 4.749.338 2.247 3.327 2.437 3.327 2.437a16.96 16.96 0 00.615 9.794c1.993 4.112 4.24 6.699 8.48 7.716 4.374.682 8.802.952 13.227.806 0 0 19.714 18.781 25.438 25.798 5.723 7.017 17.785 16.556 23.784 14.839 5.999-1.717 11.723-31.671 11.723-31.671l-16.959-1.886z" stroke="#263238" stroke-width=".75" stroke-linecap="round" stroke-linejoin="round"/><path d="M114.252 413.996l-5.427 8.437 2.777 1.887 5.554-7.949-2.904-2.375z" fill="#263238" stroke="#263238" stroke-miterlimit="10"/><path d="M112.386 421.946a2.12 2.12 0 100-4.24 2.12 2.12 0 000 4.24z" fill="#fff" stroke="#263238" stroke-width=".75" stroke-linecap="round" stroke-linejoin="round"/><path d="M107.193 357.185s1.293 3.201 3.455 8.819c2.162 5.617 13.779 17.467 19.46 18.145 5.681.679 12.486-19.968 13.567-24.229.36-1.399.721-3.646.721-3.646s7.143-3.371 5.49-7.441c-1.654-4.07-5.003-5.935-6.593-4.685-1.59 1.251-1.865 6.529-4.239 6.572-2.375.042-3.668-.7-5.766-3.498-2.099-2.798-23.848 3.01-26.095 9.963z" fill="#fff"/><path opacity=".5" d="M133.245 347.222c-2.12-2.777-23.805 3.032-26.052 9.963l1.229 3.138c8.29-5 17.298-8.696 26.71-10.96a13.393 13.393 0 01-1.887-2.141z" fill="#92E3A9"/><g style="mix-blend-mode:multiply"><path d="M149.61 348.261c-1.738-3.646-4.812-5.3-6.359-4.113a12.53 12.53 0 00-2.12 4.24 43.999 43.999 0 018.479-.127z" fill="#92E3A9" opacity=".5"/></g><path d="M107.193 357.185s1.293 3.201 3.455 8.819c2.162 5.617 13.779 17.467 19.46 18.145 5.681.679 12.486-19.968 13.567-24.229.36-1.399.721-3.646.721-3.646s7.143-3.371 5.49-7.441c-1.654-4.07-5.003-5.935-6.593-4.685-1.59 1.251-1.865 6.529-4.239 6.572-2.375.042-3.668-.7-5.766-3.498-2.099-2.798-23.848 3.01-26.095 9.963z" stroke="#263238" stroke-width=".75" stroke-linecap="round" stroke-linejoin="round"/><path d="M114.888 358.712c.381 1.293.254 2.48-.255 2.628-.509.148-1.251-.784-1.632-2.12-.382-1.335-.254-2.48.254-2.628.509-.149 1.251.869 1.633 2.12z" fill="#263238" stroke="#263238" stroke-miterlimit="10"/><path d="M110.945 355.108c2.968-.848 4.239 1.378 4.6 3.434l.551 2.438 1.844 9.433 2.798-1.187M123.028 355.828a6.09 6.09 0 015.151-1.95M125.487 349.957a6.36 6.36 0 00-4.918 4.896M123.261 372.278s6.147-1.229 6.635-5.638" stroke="#263238" stroke-width=".5" stroke-linecap="round" stroke-linejoin="round"/><path d="M175.451 445.327l-31.034-8.648s2.735-52.996 7.525-61.963c7.462-13.927 24.569-7.652 27.791 9.857 3.01 16.535-4.282 60.754-4.282 60.754z" fill="#92E3A9" stroke="#263238" stroke-linecap="round" stroke-linejoin="round"/><path d="M145.159 430.786s16.958 3.9 27.282 7.292" stroke="#263238" stroke-width=".5" stroke-linecap="round" stroke-linejoin="round"/><path d="M172.017 365.453s10.09.784 16.683 6.211" stroke="#92E3A9" stroke-width=".5" stroke-linecap="round" stroke-linejoin="round"/><path d="M349.828 501.015s-45.195 15.941-49.329 20.287c-4.133 4.346-3.709 21.304 6.042 29.55 9.751 8.246 79.26-10.45 128.949-15.898 49.688-5.448 158.774-13.461 203.291-15.623 44.516-2.163 64.76 3.709 68.661-10.176 3.9-13.884 3.413-28.723-5.067-31.733-8.479-3.011-162.972-27.749-352.547 23.593z" fill="#263238" stroke="#263238" stroke-width=".75" stroke-linecap="round" stroke-linejoin="round"/><path d="M297.277 530.566s2.12 18.378 13.419 21.198c11.298 2.819 145.568-22.619 224.701-25.438 79.133-2.819 148.388-4.939 148.388-4.939M362.865 539.893c52.486-12.719 160.449-30.695 342.118-25.586M319.832 551.085s12.062-2.925 30.398-7.928M330.898 553.184c.57 7.88.357 15.798-.636 23.636" stroke="#fff" stroke-width=".5" stroke-linecap="round" stroke-linejoin="round"/><path d="M328.969 214.203s-10.112 11.85-10.896 22.47M317.013 245.237s-7.611 121.063 12.528 249.906" stroke="#263238" stroke-width=".75" stroke-linecap="round" stroke-linejoin="round"/><path d="M319.408 385.124s-16.428 5.724-16.64 13.143c-.552 19.948 1.547 62.514 5.893 66.648 4.345 4.133 17.849-6.805 17.849-6.805s19.078 1.653 21.198-2.629c2.12-4.282-5.83-64.548-7.017-69.805-1.187-5.258-21.283-.552-21.283-.552zM662.565 413.827a36.173 36.173 0 0013.673 3.604c-5.257-19.757-11.214-41.761-17.361-63.722-5.554-.382-12.719-.382-12.571 2.12.106 4.282 10.896 54.903 16.259 57.998z" fill="#92E3A9" stroke="#263238" stroke-linecap="round" stroke-linejoin="round"/><path d="M317.055 391.357s.721 38.157 3.54 52.995" stroke="#263238" stroke-width=".75" stroke-linecap="round" stroke-linejoin="round"/><path d="M515.216 400.175s94.587-15.241 204.796 4.24M803.173 459.933c6.508 1.95 12.91 4.007 19.079 6.211M633.354 431.146s74.999 4.557 146.819 22.512M405.092 605.798a699.278 699.278 0 01186.544-3.328M397.333 595.814s44.389-5.554 58.825-6.656M694.617 184.102c6.359.911 12.719 2.119 18.485 3.497M603.231 182.003a507.974 507.974 0 0178.434.53M261.219 438.798s63.34-29.995 154.98-38.326M367.889 383.789s38.347-9.984 96.685-13.334M260.18 595.58a65.459 65.459 0 0034.977 29.678M258.061 605.12s9.539 14.839 22.258 21.198M570.734 552.124s6.36 29.678 31.798 42.397M573.914 578.622a49.039 49.039 0 0020.138 16.959M154.528 635.772s6.36 10.6 28.618 10.6M150.289 642.132a51.147 51.147 0 0028.617 11.659" stroke="#263238" stroke-linecap="round" stroke-linejoin="round"/><path d="M436.847 615.973a897.558 897.558 0 00-166.915 24.972l1.314 1.971s46.636-9.899 132.828 11.299c86.192 21.198 91.873 38.157 186.545 38.157 94.671 0 186.544-22.598 186.544-22.598l-11.489-6.359c-85.005-35.973-201.511-54.564-328.827-47.442z" fill="#92E3A9"/><path opacity=".5" d="M436.847 615.973a897.558 897.558 0 00-166.915 24.972l1.314 1.971s46.636-9.899 132.828 11.299c86.192 21.198 91.873 38.157 186.545 38.157 94.671 0 186.544-22.598 186.544-22.598l-11.489-6.359c-85.005-35.973-201.511-54.564-328.827-47.442z" fill="#fff"/><path d="M229.443 664.475s111.291-16.959 207.743 47.696M346.033 688.853s45.576 13.779 73.134 43.456M615.251 634.797s64.654 6.36 122.949 41.337M816.846 689.573A268.988 268.988 0 01850 713.506" stroke="#263238" stroke-linecap="round" stroke-linejoin="round"/><path d="M58.394 739.58c77.268-65.714 216.879-114.47 378.452-123.607 147.476-8.373 280.495 18.04 366.73 65.715M529.398 633.737s66.774 3.18 111.291 18.019" stroke="#263238" stroke-linecap="round" stroke-linejoin="round"/><path d="M226.645 130.491s-2.12-29.317-45.047-30.377c-42.926-1.06-31.437 29.339-42.947 36.673-11.511 7.335-14.669-4.24-26.201 3.137-11.532 7.377-6.36 22.004-15.708 24.103-9.349 2.099-22.004-9.433-33.515-2.12-11.51 7.313-11.531 13.609-16.767 13.609-5.236 0-15.708-4.239-21.983 0a1330.43 1330.43 0 00-13.63 9.37h264.978s3.137-9.433-8.48-15.708c-11.616-6.275-16.768-1.06-20.944-6.359-4.176-5.3 11.66-18.697-19.756-32.328zM384.084 18.29S382.812.651 356.993.015c-25.82-.636-18.909 17.658-25.841 22.068-6.932 4.409-8.819-2.523-15.75 1.886-6.932 4.41-3.774 13.228-9.455 14.479-5.681 1.25-13.227-5.66-20.159-1.251-6.932 4.41-6.932 8.182-10.091 8.182-3.158 0-9.454-2.501-13.227 0-3.774 2.502-8.183 5.681-8.183 5.681h159.411s1.886-5.68-5.045-9.454c-6.932-3.773-10.07-.636-12.592-3.773-2.523-3.138 6.932-11.341-11.977-19.545z" fill="#92E3A9"/><path opacity=".7" d="M226.645 130.491s-2.12-29.317-45.047-30.377c-42.926-1.06-31.437 29.339-42.947 36.673-11.511 7.335-14.669-4.24-26.201 3.137-11.532 7.377-6.36 22.004-15.708 24.103-9.349 2.099-22.004-9.433-33.515-2.12-11.51 7.313-11.531 13.609-16.767 13.609-5.236 0-15.708-4.239-21.983 0a1330.43 1330.43 0 00-13.63 9.37h264.978s3.137-9.433-8.48-15.708c-11.616-6.275-16.768-1.06-20.944-6.359-4.176-5.3 11.66-18.697-19.756-32.328z" fill="#fff"/><path opacity=".8" d="M384.084 18.29S382.812.651 356.993.015c-25.82-.636-18.909 17.658-25.841 22.068-6.932 4.409-8.819-2.523-15.75 1.886-6.932 4.41-3.774 13.228-9.455 14.479-5.681 1.25-13.227-5.66-20.159-1.251-6.932 4.41-6.932 8.182-10.091 8.182-3.158 0-9.454-2.501-13.227 0-3.774 2.502-8.183 5.681-8.183 5.681h159.411s1.886-5.68-5.045-9.454c-6.932-3.773-10.07-.636-12.592-3.773-2.523-3.138 6.932-11.341-11.977-19.545z" fill="#fff"/></svg>