<svg width="1920" height="500" fill="none" xmlns="http://www.w3.org/2000/svg"><path d="M1920 0H0v500h1920V0z" fill="#B2F0BF"/><path d="M1920 500V226.65c-255.21 31.162-503.11 146.473-770.5 146.35-285.389-.21-587.938-118.13-873.02-112.98-93.09 1.535-185.63 6.372-276.48 14.45V500h1920z" fill="#2DA771"/><path d="M219.672 199.9L70.655 269.314s-9.971 5.292-17.992-3.379c-8.02-8.67-9.244-8.415-4.615-22.517 4.628-14.103 34.274-89.255 34.274-89.255s.969-8.505 32.093-20.656c31.125-12.152 132.238-53.464 132.238-53.464s5.89-3.825 12.891 3.175c7 7 14.025 14.587 8.02 26.993-6.006 12.407-38.176 80.457-38.176 80.457s-1.645 5.483-9.716 9.232z" fill="#835844"/><path d="M65.3 270.908s-8.505-.497 0-18.246c8.504-17.749 34.528-81.439 34.528-81.439s1.275-8.262 19.445-15.556c18.17-7.293 135.884-54.7 135.884-54.7s8.645-4.131 11.68-1.696c3.035 2.435-5.598 17.978-5.598 17.978l-39.935 81.822S73.817 267.478 65.299 270.908z" fill="#4C3329"/><path d="M119.273 155.667c-18.233 7.294-19.444 15.556-19.444 15.556s-26.012 63.754-34.53 81.439c-8.517 17.685 0 18.246 0 18.246 6.63-2.626 97.378-44.627 137.338-63.18l42.256-102.63c-29.008 11.693-110.689 44.589-125.62 50.569z" fill="#35241D"/><path d="M57.037 269.748a.425.425 0 01-.383-.255 1.66 1.66 0 01-.114-.791 16.58 16.58 0 01.56-3.557.426.426 0 01.175-.31.413.413 0 01.349-.067.418.418 0 01.317.402.422.422 0 01-.037.179 14.91 14.91 0 00-.536 3.353 2.036 2.036 0 000 .472.393.393 0 01-.072.446.409.409 0 01-.132.09.378.378 0 01-.127.038zm1.607-8.059a.25.25 0 01-.128 0 .395.395 0 01-.255-.51c.383-1.198.841-2.55 1.352-3.927a.42.42 0 01.535-.242.42.42 0 01.242.535c-.51 1.39-.969 2.704-1.351 3.889a.408.408 0 01-.395.255zm2.83-7.765h-.153a.406.406 0 01-.23-.535v-.128c.383-.994.893-2.257 1.492-3.736a.431.431 0 01.536-.229.42.42 0 01.23.548c-.6 1.479-1.097 2.729-1.492 3.723v.115a.405.405 0 01-.383.242zm3.111-7.65a.33.33 0 01-.153 0 .41.41 0 01-.23-.536l1.57-3.825a.42.42 0 01.547-.229.397.397 0 01.22.222.41.41 0 01-.003.313l-1.568 3.825a.398.398 0 01-.383.179v.051zm3.15-7.651a.33.33 0 01-.153 0 .418.418 0 01-.23-.535l1.581-3.825a.423.423 0 01.549-.217.412.412 0 01.22.223.406.406 0 01-.004.312l-1.58 3.826a.423.423 0 01-.383.153v.063zm3.175-7.65a.357.357 0 01-.166 0 .399.399 0 01-.22-.223.411.411 0 01.003-.313l1.581-3.825a.42.42 0 01.548-.229.412.412 0 01.22.222.41.41 0 01-.003.313l-1.58 3.825a.445.445 0 01-.383.153v.077zm3.175-7.65h-.166a.424.424 0 01-.217-.549l1.581-3.825a.417.417 0 01.23-.22.418.418 0 01.45.093.402.402 0 01.118.29.411.411 0 01-.033.156l-1.594 3.825a.395.395 0 01-.42.14l.05.09zm3.175-7.651h-.166a.42.42 0 01-.217-.548l1.594-3.825a.402.402 0 01.536-.217.421.421 0 01.229.535l-1.594 3.826a.417.417 0 01-.382.14v.089zm3.174-7.65h-.153a.414.414 0 01-.225-.228.406.406 0 01.009-.321l1.58-3.825a.423.423 0 01.68-.127.402.402 0 01.118.29.405.405 0 01-.032.156l-1.594 3.825a.393.393 0 01-.408.14l.025.09zm3.188-7.651h-.153a.399.399 0 01-.225-.228.408.408 0 01.008-.32l1.594-3.825a.407.407 0 01.668-.127.4.4 0 01.117.289.414.414 0 01-.032.157l-1.594 3.825a.396.396 0 01-.383.14v.089zm3.2-7.65h-.165a.42.42 0 01-.217-.548l1.594-3.826a.418.418 0 01.516-.161.42.42 0 01.249.48l-1.594 3.825a.407.407 0 01-.42.141l.038.089zm3.188-7.651h-.153a.417.417 0 01-.23-.535l1.607-3.825a.404.404 0 01.378-.26.422.422 0 01.388.578l-1.607 3.826a.422.422 0 01-.383.127v.089zm3.2-7.65h-.152a.414.414 0 01-.226-.228.406.406 0 01.009-.32l.535-1.275c.396-.918.625-1.492.702-1.658.076-.166 0-.421.165-.88a.416.416 0 01.498-.306.414.414 0 01.306.498c-.128.535-.153.828-.166.841a14.367 14.367 0 01-.714 1.823l-.548 1.276a.396.396 0 01-.46.127l.052.102zm2.882-7.765a.413.413 0 01-.178 0 .423.423 0 01-.192-.561 25.12 25.12 0 012.18-3.583.414.414 0 01.266-.172.416.416 0 01.477.506.418.418 0 01-.066.15 24.834 24.834 0 00-2.117 3.303.412.412 0 01-.37.255v.102zm4.795-6.733a.377.377 0 01-.152-.029.413.413 0 01-.129-.085.424.424 0 010-.587 36.244 36.244 0 013.073-2.83.418.418 0 01.586 0 .404.404 0 010 .573 34.849 34.849 0 00-2.996 2.767.428.428 0 01-.165.148.408.408 0 01-.217.043zm6.375-5.24a.41.41 0 01-.344-.191.395.395 0 01.114-.561 43.985 43.985 0 013.583-2.142.42.42 0 01.611.332.395.395 0 01-.09.305.398.398 0 01-.125.102c-1.275.65-2.41 1.364-3.52 2.091a.52.52 0 01-.229 0v.064zm7.268-3.927a.407.407 0 01-.383-.243.424.424 0 01.204-.548c.6-.268 1.212-.523 1.849-.778l2.002-.816a.425.425 0 01.57.389.395.395 0 01-.125.292.381.381 0 01-.139.084l-2.002.816-1.81.765-.166.039zm7.65-3.137a.432.432 0 01-.382-.255.447.447 0 01.229-.548l3.825-1.543a.423.423 0 01.549.229.434.434 0 01-.23.536l-3.825 1.556-.166.025zm7.651-3.098a.427.427 0 01-.383-.255.447.447 0 01.23-.549l3.825-1.542a.416.416 0 01.535.229.38.38 0 01.035.159.377.377 0 01-.032.159.398.398 0 01-.232.218l-3.825 1.555-.153.026zm7.65-3.086a.422.422 0 01-.153-.803l3.825-1.543a.412.412 0 11.306.765l-3.825 1.543a.307.307 0 01-.025-.026l-.128.064zm7.65-3.098a.4.4 0 01-.382-.255.413.413 0 01.002-.316.423.423 0 01.227-.22l3.826-1.543a.42.42 0 01.548.23.421.421 0 01-.23.535l-3.685 1.479a.301.301 0 01-.14 0l-.166.09zm7.651-3.086a.395.395 0 01-.383-.255.407.407 0 01.003-.316.404.404 0 01.227-.22l3.825-1.542a.39.39 0 01.158-.031.404.404 0 01.378.26.425.425 0 01-.23.536l-3.825 1.542a.375.375 0 01.051-.038l-.204.064zm7.65-3.073a.422.422 0 01-.153-.803l3.825-1.543a.435.435 0 01.536.229.421.421 0 01-.229.536l-3.826 1.543a.35.35 0 01.153-.026l-.306.064zm7.651-3.086a.42.42 0 01-.153-.803l3.825-1.543a.43.43 0 01.535.23.442.442 0 01-.229.548l-3.825 1.53c.048-.02.1-.029.153-.025l-.306.063zm7.65-3.085a.413.413 0 01-.382-.268.391.391 0 01-.037-.154.392.392 0 01.119-.286.373.373 0 01.134-.083l3.826-1.543a.413.413 0 01.158-.035.42.42 0 01.16.032.396.396 0 01.217.233.408.408 0 01-.229.535l-3.826 1.53a.351.351 0 01.166-.025l-.306.064zm7.651-3.086a.393.393 0 01-.383-.255.408.408 0 01.23-.536l3.825-1.542a.39.39 0 01.158-.03.424.424 0 01.29.124.428.428 0 01.117.293.417.417 0 01-.259.378l-3.825 1.542a.324.324 0 01.153-.038l-.306.064zm7.65-3.073a.422.422 0 01-.153-.803l3.825-1.543a.421.421 0 01.539.548.396.396 0 01-.233.217l-3.825 1.543a.344.344 0 01.242-.026l-.395.064zm7.65-3.086a.417.417 0 01-.382-.255.379.379 0 01-.035-.158.382.382 0 01.032-.16.386.386 0 01.232-.217l3.826-1.543a.395.395 0 01.535.23.405.405 0 01-.229.535l-3.826 1.543-.153.025zm7.651-3.085a.395.395 0 01-.383-.255.409.409 0 01.23-.536l3.825-1.543a.407.407 0 01.316.003.404.404 0 01.22.227.395.395 0 01-.091.451.381.381 0 01-.139.084l-3.825 1.543a.32.32 0 01.319-.038l-.472.064zm7.65-3.073a.422.422 0 01-.153-.804l3.825-1.542a.436.436 0 01.536.229.447.447 0 01-.23.548l-3.825 1.531a.338.338 0 01.175-.063.338.338 0 01.182.037l-.51.064zm7.651-3.086a.419.419 0 01-.414-.413.43.43 0 01.033-.158.403.403 0 01.228-.219l3.825-1.543a.406.406 0 01.448.095.413.413 0 01-.142.67l-3.825 1.543-.153.025zm7.65-3.086a.436.436 0 01-.395-.255.42.42 0 01.242-.535l3.825-1.543a.408.408 0 01.536.23c.022.05.034.104.035.158a.42.42 0 01-.032.16.396.396 0 01-.233.217l-3.825 1.543a.317.317 0 01.446-.038l-.599.063zm7.65-3.072a.415.415 0 01-.233-.074.415.415 0 01-.149-.194.436.436 0 01.229-.536l3.826-1.543a.407.407 0 01.535.23.38.38 0 01.035.159.377.377 0 01-.032.159.39.39 0 01-.232.217l-3.826 1.543a.36.36 0 01.232-.126.356.356 0 01.253.075l-.638.09zm7.651-3.086a.42.42 0 01-.383-.268.43.43 0 01.23-.535l3.825-1.543a.408.408 0 01.536.23c.022.05.034.103.035.158a.404.404 0 01-.265.377l-3.825 1.543a.396.396 0 01.535-.026l-.688.064zm24.354-2.295a.433.433 0 01-.396-.268 4.874 4.874 0 00-.892-1.53.422.422 0 01.134-.679.404.404 0 01.452.092 5.517 5.517 0 011.059 1.785c.02.051.03.106.029.16a.416.416 0 01-.272.376l-.114.064zm-16.576-.804a.409.409 0 01-.153-.79l2.155-.867s.688-.306 1.747-.65a.406.406 0 01.522.255.41.41 0 01-.115.442.407.407 0 01-.14.08c-1.02.345-1.683.625-1.696.638l-2.167.867-.153.025zm7.892-2.55a.422.422 0 01-.335-.665.413.413 0 01.272-.163c1.401-.251 2.833-.29 4.246-.115a.407.407 0 01.344.459.411.411 0 01-.308.35.406.406 0 01-.164.007 13.387 13.387 0 00-3.991.115l-.064.012z" fill="#7DE199"/><path d="M76.06 170.114l14.703-3.953-8.671 20.886-13.031.982 7-17.915z" fill="#F6F6F2"/><path d="M50.534 236.367s15.123-5.547 8.199-21.677l-8.199 21.677z" fill="#EF4E55"/><path d="M62.711 268.486v32.769s-.51 12.292 11.476 21.676c11.985 9.385 66.877 57.786 66.877 57.786s15.607 19.636 42.587 3.927c26.981-15.708 119.602-67.91 119.602-67.91s16.321-8.173 16.436-20.681c.114-12.509 1.338-31.737 1.338-31.737s1.441-5.1 0-8.925c-1.44-3.826-12.381-9.589-12.381-9.589l-81.859-50.646s-9.933-4.131-18.922 0c-8.989 4.132-137.083 63.397-137.083 63.397s-8.479 3.111-8.071 9.933z" fill="#835844"/><path d="M93.236 313.967c0 5.7-3.825 10.315-8.594 10.315-4.768 0-8.581-4.615-8.581-10.315 0-5.699 3.825-10.302 8.581-10.302 4.756 0 8.594 4.615 8.594 10.302z" fill="#78D5F9"/><path d="M86.083 319.935l19.305-2.04 3.94 19.636-16.806 1.173-6.439-18.769z" fill="#EF4E55"/><path d="M118.572 337.467l29.39 22.696v12.394l-29.39-23.398v-11.692z" fill="#F6F6F2"/><path d="M70.055 263.054l139.723-65.22s7.14-4.386 16.423.88c9.282 5.266 87.036 52.8 87.036 52.8s11.794 7.141-1.62 14.549c-13.413 7.408-137.592 74.617-137.592 74.617s-12.164 6.528-26.586-5.011c-14.421-11.539-78.008-64.212-78.008-64.212s-6.235-5.254.624-8.403z" fill="#35241D"/><path d="M187.247 355.547v14.064l19.496-11.412v-13.656l-19.496 11.004zM220.96 337.212v9.499l13.171-7.714v-9.219l-13.171 7.434zM261.801 314.235v9.499l13.171-7.701v-9.231l-13.171 7.433zM285.402 297.06v14.051l19.508-11.399v-13.873l-19.508 11.221z" fill="#7DE199"/><path d="M163.085 352.525a27.949 27.949 0 01-11.152-2.091 27.986 27.986 0 01-9.403-6.349l-80.1-68.013a.418.418 0 010-.586.406.406 0 01.574 0l80.151 68.076a25.368 25.368 0 0010.277 6.617c6.146 2.181 16.321 3.214 29.85-4.233 26.202-14.421 136.177-76.313 137.286-76.938a.422.422 0 01.408.727c-1.109.625-111.096 62.479-137.286 76.925-7.995 4.335-14.88 5.865-20.605 5.865z" fill="#4C3329"/><path d="M64.28 274.121a.419.419 0 01-.268-.089l-1.581-1.275a.42.42 0 010-.586.406.406 0 01.573 0l1.581 1.275a.418.418 0 010 .586.454.454 0 01-.306.089zM161.733 349.159a30.22 30.22 0 01-4.169-.446.406.406 0 01-.332-.485.41.41 0 01.472-.331c1.34.239 2.695.388 4.055.446a.392.392 0 01.372.262.392.392 0 01.023.159.385.385 0 01-.033.157.402.402 0 01-.388.238zm4.106-.076a.42.42 0 01-.408-.383.423.423 0 01.382-.446 35.547 35.547 0 004.042-.599.402.402 0 01.312.053.39.39 0 01.173.265.402.402 0 01-.054.312.387.387 0 01-.265.173 33.85 33.85 0 01-4.144.612l-.038.013zm-12.254-1.39h-.127a27.896 27.896 0 01-3.825-1.632.418.418 0 01.058-.764.41.41 0 01.311.024 30.595 30.595 0 003.826 1.594.404.404 0 01.277.364.409.409 0 01-.022.159.406.406 0 01-.472.242l-.026.013zm20.401-.268a.405.405 0 01-.395-.293.423.423 0 01.268-.523 41.82 41.82 0 003.825-1.403.413.413 0 01.159-.035.392.392 0 01.377.265.396.396 0 01.032.156.403.403 0 01-.249.379 39.299 39.299 0 01-3.927 1.429l-.09.025zm7.651-3.162a.41.41 0 01-.37-.217.418.418 0 01.191-.561l1.811-.956 1.823-1.008a.42.42 0 01.316-.035.398.398 0 01.245.201.419.419 0 01-.165.561l-1.811.995c-.625.344-1.275.676-1.849.982l-.191.038zm-35.332-.357a.422.422 0 01-.243-.077 22.205 22.205 0 01-3.187-2.767.404.404 0 010-.573.415.415 0 01.293-.119c.11 0 .215.042.293.119a22.145 22.145 0 003.073 2.665.387.387 0 01.17.267.385.385 0 01-.081.306.381.381 0 01-.344.166l.026.013zm42.625-3.621a.407.407 0 01-.429-.303.407.407 0 01.225-.475l3.621-2.015a.421.421 0 11.408.727l-3.634 2.015a.36.36 0 01-.216.038l.025.013zm-48.873-1.811a.439.439 0 01-.268-.102l-3.149-2.678a.387.387 0 01-.092-.134.394.394 0 010-.318.42.42 0 01.678-.134l3.15 2.678a.407.407 0 010 .573.428.428 0 01-.345.102l.026.013zm56.103-2.231a.407.407 0 01-.33-.663.413.413 0 01.126-.102l3.621-2.028a.422.422 0 01.408.727l-3.634 2.015a.36.36 0 01-.191.038v.013zm-62.479-3.137a.423.423 0 01-.267-.089l-3.162-2.678a.417.417 0 010-.586.4.4 0 01.286-.124c.054 0 .107.011.157.032a.41.41 0 01.13.092l3.162 2.677a.42.42 0 010 .587.404.404 0 01-.267.076l-.039.013zm69.683-.893a.401.401 0 01-.208-.059.402.402 0 01-.149-.157.416.416 0 01-.041-.313.415.415 0 01.194-.248l3.621-2.028a.421.421 0 11.408.727l-3.621 2.015a.388.388 0 01-.166.051l-.038.012zm7.242-4.054a.423.423 0 01-.357-.204.406.406 0 01.081-.458.417.417 0 01.136-.091l3.621-2.027a.415.415 0 01.313-.041.415.415 0 01.248.194.395.395 0 01-.153.561l-3.621 2.027a.369.369 0 01-.229.026l-.039.013zm-83.236-.408a.377.377 0 01-.145-.023.37.37 0 01-.123-.079l-3.162-2.678a.422.422 0 010-.586.405.405 0 01.574 0l3.162 2.677a.423.423 0 010 .587.46.46 0 01-.268.089l-.038.013zm90.53-3.634a.415.415 0 01-.209-.059.416.416 0 01-.148-.158.41.41 0 01.153-.561l3.621-2.027a.404.404 0 01.459.04.419.419 0 01-.051.686l-3.608 2.002a.425.425 0 01-.23.064l.013.013zm-96.791-1.722a.401.401 0 01-.267-.102l-3.163-2.677a.423.423 0 010-.587.396.396 0 01.574 0l3.162 2.678a.417.417 0 010 .586.374.374 0 01-.149.081.372.372 0 01-.169.009l.012.012zm104.033-2.333a.407.407 0 01-.37-.217.422.422 0 01.166-.561l3.621-2.027a.424.424 0 01.315-.033.412.412 0 01.28.514.421.421 0 01-.199.246l-3.622 2.027a.35.35 0 01-.204.038l.013.013zm-110.306-3.047a.377.377 0 01-.145-.023.37.37 0 01-.123-.079l-3.162-2.678a.423.423 0 010-.587.408.408 0 01.574 0l3.162 2.678a.423.423 0 010 .587.41.41 0 01-.306.102zm117.574-1.02a.409.409 0 01-.357-.217.42.42 0 01.153-.561l3.621-2.028a.414.414 0 01.457.031.42.42 0 01-.061.696l-3.66 2.015a.614.614 0 01-.204.064h.051zm7.242-4.055a.41.41 0 01-.204-.778l3.596-2.027a.434.434 0 01.574.165.42.42 0 01-.166.561l-3.659 2.028a.531.531 0 01-.191.051h.05zm-131.191-.281a.402.402 0 01-.268-.102l-3.162-2.677a.42.42 0 01.293-.711.41.41 0 01.293.124l3.162 2.678a.417.417 0 010 .586.388.388 0 01-.147.088.368.368 0 01-.171.014zm138.345-3.825a.437.437 0 01-.37-.204.434.434 0 01.166-.574l3.621-2.027a.399.399 0 01.315-.036.42.42 0 01.093.763l-3.621 2.027a.408.408 0 01-.192.102l-.012-.051zm-144.644-1.543a.343.343 0 01-.145-.023.342.342 0 01-.123-.079l-3.162-2.677a.403.403 0 01-.143-.281.414.414 0 01.225-.399.416.416 0 01.453.055l3.163 2.678a.42.42 0 010 .586.406.406 0 01-.268.14zm151.886-2.461a.404.404 0 01-.357-.216.416.416 0 01-.041-.313.415.415 0 01.194-.248l3.621-2.028a.414.414 0 01.456.032.406.406 0 01.156.273.417.417 0 01-.083.304.393.393 0 01-.121.105l-3.621 2.028a.38.38 0 01-.204.063zm-158.21-2.894a.468.468 0 01-.268-.102l-3.15-2.678a.418.418 0 01.248-.694c.1-.017.202.004.288.057l3.15 2.69a.4.4 0 01.09.443.39.39 0 01-.09.131.388.388 0 01-.269.153zm165.452-1.173a.436.436 0 01-.369-.204.404.404 0 01.04-.459.398.398 0 01.125-.102l3.609-2.04a.399.399 0 01.315-.036.416.416 0 01.246.202.404.404 0 01-.031.456.41.41 0 01-.122.105l-3.634 2.027a.364.364 0 01-.179.051zm7.23-4.055a.401.401 0 01-.37-.217.422.422 0 01.166-.561l3.608-2.027a.415.415 0 01.313-.041.415.415 0 01.29.507.404.404 0 01-.073.143.393.393 0 01-.121.105l-3.622 2.04a.453.453 0 01-.191.051zm-178.994-.178a.42.42 0 01-.268-.09l-3.15-2.69a.39.39 0 01-.123-.287.392.392 0 01.124-.287.415.415 0 01.587 0l3.149 2.678a.413.413 0 01.124.293.405.405 0 01-.124.293.427.427 0 01-.32.09zm186.16-3.927a.441.441 0 01-.37-.204.399.399 0 01-.035-.316.409.409 0 01.201-.246l3.608-2.04a.434.434 0 01.574.166.418.418 0 01-.166.561l-3.608 2.028a.42.42 0 01-.14.153l-.064-.102zm-192.535-1.429a.426.426 0 01-.268-.102l-3.15-2.677a.413.413 0 01-.092-.453.413.413 0 01.092-.134.436.436 0 01.587 0l3.15 2.691a.397.397 0 01.09.443.397.397 0 01-.09.13.408.408 0 01-.256.141l-.064-.039zm199.765-2.626a.409.409 0 01-.357-.217.398.398 0 01.031-.456.385.385 0 01.122-.105l3.621-2.027a.393.393 0 01.152-.052.392.392 0 01.16.011.398.398 0 01.249.194.422.422 0 01-.166.561l-3.608 2.04a.61.61 0 01-.141.089l-.063-.038zm-206.013-2.703a.42.42 0 01-.268-.09l-3.15-2.69a.391.391 0 01-.123-.287.392.392 0 01.124-.287.414.414 0 01.587 0l3.148 2.678a.42.42 0 010 .586.456.456 0 01-.318.09zm213.306-1.275a.424.424 0 01-.389-.314.423.423 0 01.185-.464l3.621-2.028a.426.426 0 01.311-.036.425.425 0 01.25.189.404.404 0 01.036.316.411.411 0 01-.202.245l-3.608 2.041a.635.635 0 01-.204 0v.051zm-219.618-4.081a.426.426 0 01-.268-.102l-3.162-2.677a.423.423 0 01.248-.695c.1-.016.202.004.288.057l3.162 2.691a.406.406 0 010 .573.42.42 0 01-.268.153zm226.848 0a.405.405 0 01-.357-.216.419.419 0 01.153-.561l3.621-2.028a.41.41 0 01.53.609.396.396 0 01-.122.105l-3.621 2.04a.364.364 0 01-.204.013v.038zm7.242-4.067a.41.41 0 01-.4-.531.42.42 0 01.196-.247l3.621-2.027a.411.411 0 01.311-.035.4.4 0 01.292.346.401.401 0 01-.086.3.404.404 0 01-.122.103l-3.608 2.04a.415.415 0 01-.204.013v.038zm7.242-4.068a.398.398 0 01-.215-.056.395.395 0 01-.154-.16.419.419 0 01.165-.561l3.622-2.04a.422.422 0 01.52.185.418.418 0 01-.112.541l-3.634 2.04a.368.368 0 01-.192 0v.051zM318.936 267.364a.42.42 0 01-.216-.056.418.418 0 01-.154-.161.423.423 0 01.166-.561l1.798-1.007a.398.398 0 01.456.031.385.385 0 01.105.122.431.431 0 01-.153.573l-1.798 1.008a.415.415 0 01-.204.051z" fill="#7DE199"/><path d="M224.9 340.54a6.684 6.684 0 016.375-3.405s.37 12.037 8.632 9.844c8.263-2.193 30.844-12.751 27.108-29.046 0 0 1.951-4.986 5.101-3.826 0 0 4.386 18.361-9.602 27.835-13.987 9.474-24.06 17.991-33.062 10.826-.064.051-4.068-2.41-4.552-12.228z" fill="#35241D"/><path d="M188.879 368.655v-11.578l17.864-10.366v-2.168l-19.496 11.004v14.064l1.632-.956zM285.402 311.111V297.06l19.508-11.221v2.589l-17.698 10.047.141 11.501-1.951 1.135zM220.96 346.711v-9.499l13.171-7.434v1.148l-12.227 7.319.012 7.905-.956.561zM261.801 323.734l1.351-.79v-8.224l11.82-6.758v-1.16l-13.171 7.433v9.499z" fill="#54B74B"/><path d="M152.45 121.062l5.164 7.944 46.158-18.693-5.547-8.186-45.775 18.935z" fill="#7DE199"/><path d="M152.45 121.062l5.164 7.944 46.158-18.693-.701-1.045-44.844 18.539-4.591-7.23-1.186.485z" fill="#54B74B"/><path d="M177.588 111.369l-1.505.631 2.56 6.102 1.505-.631-2.56-6.102z" fill="#604A23"/><path d="M176.205 112.277l1.25-.523 2.448 5.814-1.263.523-2.435-5.814z" fill="#443317"/><path d="M341.734 420.818L834 411.344l98.461-123.197-422.264 35.587-168.463 97.084z" fill="#262320" opacity=".5"/><path d="M341.735 420.818l-133.5-50.263-23.742-35.536 17.061-9.245 140.181 95.044z" fill="#262320" opacity=".5"/><path d="M152.846 306.801l188.888 114.017 168.463-97.084-174.902-108.776-182.449 91.843z" fill="#F6F6F2"/><path d="M341.734 420.818l325.997-42.294 111.582-112.589-269.116 57.799-168.463 97.084z" fill="#DDDDD0"/><path d="M667.732 378.524l166.269 32.82 98.461-123.197-153.149-22.212-111.581 112.589z" fill="#F6F6F2"/><path d="M152.846 306.801l-47.05-5.278 151.478-84.129 78.021-2.436-182.449 91.843z" fill="#DDDDD0"/><path d="M105.796 301.523l12.776-71.774 149.808-66.508-11.106 54.153-151.478 84.129z" fill="#F6F6F2"/><path d="M118.572 229.749l-31.341 56.524 18.565 15.25 12.776-71.774z" fill="#6B685B"/><path d="M124.896 226.944l-10.672 69.899 135.935-75.497 11.641-55.185-136.904 60.783z" fill="#95FF7A"/><path d="M144.851 243.737c2.359-4.527 5.304-8.722 7.651-13.261 2.346-4.539 4.054-9.576 3.697-14.663a21.127 21.127 0 00-.382-2.551l-10.201 4.552a14.936 14.936 0 011.454 12.305 6.546 6.546 0 01-2.933 3.889 8.373 8.373 0 01-3.978.535c-3.277-.102-6.72-.255-9.512-1.976-2.091-1.275-3.583-3.353-5.381-5.1a3.535 3.535 0 00-.331-.281l-1.174 6.898a16.31 16.31 0 015.267 2.079c4.118 2.473 7.828 6.375 8.083 11.22a21.666 21.666 0 01-1.389 7.306 103.143 103.143 0 00-4.221 32.527l8.454-4.692a33.784 33.784 0 01-1.798-11.475 58.964 58.964 0 016.694-27.312z" fill="#78D5F9"/><path d="M114.224 296.843l50.276 4.093 161.704-81.4-76.045 1.81-135.935 75.497z" fill="#4EBD44"/><path d="M164.5 300.936l189.36 112.907 148.023-85.314-175.679-108.993-161.704 81.4z" fill="#95FF7A"/><path d="M206.743 279.668s34.159 33.343 78.659-4.654c44.5-37.997 95.923-21.243 95.923-21.243l7.192 4.463s-35.077-6.133-44.73 2.002c-9.652 8.135 12.254 19.763 23.984 14.548 11.731-5.215 38.622-5.47 38.622-5.47l9.244 5.738s-24.749 1.632-41.605 8.518c-16.856 6.885-36.097.114-44.627-14.664 0 0-11.884-9.078-28.052 7.893s-39.259 27.733-73.877 24.137c0 0-16.334-2.41-23.449-10.965 0 0-4.182-4.412-14.306-1.76l17.022-8.543zM361.855 405.785c8.836-5.445 17.979-11.182 23.474-19.98 5.496-8.798 6.095-21.587-1.504-28.651-5.624-5.215-14.115-6.006-21.677-4.807-7.561 1.198-14.803 4.118-22.377 5.304a50.773 50.773 0 01-31.227-5.228c-7.242-3.825-13.541-9.435-21.127-12.534-12.228-4.998-29.735-2.205-38.814 7.97a15.891 15.891 0 00-1.67 2.218l104.352 62.224.561-.345 10.009-6.171z" fill="#78D5F9"/><path d="M353.86 413.843l322.695-44.232 97.581-98.461-272.253 57.379-148.023 85.314z" fill="#4EBD44"/><path d="M676.555 369.611l148.278 28.83 89.242-105.143-139.939-22.148-97.581 98.461z" fill="#95FF7A"/><g style="mix-blend-mode:multiply" opacity=".4"><path d="M193.661 199.9a12 12 0 013.188 1.67" stroke="#262320" stroke-linecap="round" stroke-linejoin="round" opacity=".4"/><path d="M200.967 207.321c2.55 7.025.255 17.009-4.361 23.716-5.444 7.944-13.057 15.568-15.492 24.43" stroke="#262320" stroke-linecap="round" stroke-linejoin="round" stroke-dasharray="5.65 5.65" opacity=".4"/><path d="M180.438 258.999a19.946 19.946 0 000 3.608l3.188-1.708" stroke="#262320" stroke-linecap="round" stroke-linejoin="round" opacity=".4"/><path d="M190.065 257.431l34.682-18.527c5.444-2.907 11.157-5.891 17.328-6.031 6.171-.14 12.904 3.519 14.09 9.589 1.275 6.528-3.966 12.266-6.95 18.208-7.306 14.548-.471 33.151 12.075 43.569 12.547 10.417 29.327 14.025 45.597 15.198 34.057 2.551 68.241-3.761 102.362-2.244 13.491.6 29.391 4.234 34.312 16.806 3.469 8.925-.102 18.463-5.457 26.776" stroke="#262320" stroke-linecap="round" stroke-linejoin="round" stroke-dasharray="5.78 5.78" opacity=".4"/><path d="M436.026 363.759a83.52 83.52 0 01-2.181 2.881c.697.985 1.473 1.91 2.321 2.767" stroke="#262320" stroke-linecap="round" stroke-linejoin="round" opacity=".4"/><path d="M441.993 373.857c6.095 3.494 13.593 5.101 20.669 6.146a280.95 280.95 0 00195.162-43.747c21.944-14.651 45.648-33.343 71.022-31.405" stroke="#262320" stroke-linecap="round" stroke-linejoin="round" stroke-dasharray="5.77 5.77" opacity=".4"/><path d="M732.505 305.271c1.173.192 2.359.421 3.545.702.085 1.198.212 2.397.382 3.595" stroke="#262320" stroke-linecap="round" stroke-linejoin="round" opacity=".4"/><path d="M737.809 316.479c6.847 26.42 31.035 47.79 58.309 52.1 14.472 2.295 30.041.127 42.154-8.11 12.113-8.237 20.108-23.104 18.08-37.627-2.027-14.523-15.3-27.248-29.925-26.713-12.216.459-23.079 11.476-23.895 23.232" stroke="#262320" stroke-linecap="round" stroke-linejoin="round" stroke-dasharray="5.53 5.53" opacity=".4"/><path d="M802.595 322.893c.134 1.196.373 2.378.714 3.532" stroke="#262320" stroke-linecap="round" stroke-linejoin="round" opacity=".4"/></g><path d="M502.215 349.695c2.55 4.297 7.548 6.758 12.521 7.331a36.873 36.873 0 0014.791-1.963c4.641-1.39 9.359-3.162 14.178-2.665 2.41.379 4.785.95 7.103 1.709 12.75 3.442 26.444 1.555 38.749-3.15 12.304-4.705 23.41-12.075 34.095-19.725 9.295-6.707 18.425-13.784 28.74-18.807 12.368-6.032 25.986-8.926 39.451-11.744 6.273-1.275 12.61-2.639 19.024-2.626 3.659 0 7.344.459 10.953-.141 7.191-1.173 13.159-6.375 17.366-12.304a71.883 71.883 0 004.795-8.033L501.883 328.58l-2.321 1.339c.141 2.091.23 4.182.23 6.222-.025 4.616.025 9.55 2.423 13.554z" fill="#CBB08F"/><path d="M517.503 347.208c13.898 7.523 30.525-11.297 45.533-6.375 2.154.714 4.131 1.887 6.286 2.55 10.799 3.519 21.217-5.432 29.849-12.827 12.445-10.647 26.687-19.483 42.383-24.226 16.372-4.884 33.764-5.101 50.493-8.684 12.521-2.664 25.285-7.803 34.274-16.575L509.355 326.96c-.115.74-.217 1.505-.268 2.283-.471 6.974 2.295 14.637 8.416 17.965z" fill="#F5E4BB"/><path d="M131.552 287.216s23.283 12.05 58.233.995l16.958-8.543s-36.786 14.153-66.737 2.856l-8.454 4.692z" fill="#57B6D3"/><path d="M504.918 245.598l.28-17.239h8.365l-8.645 17.239z" fill="#84847F"/><path d="M580.121 213.9l-72.602 16.525-2.601 15.173 75.203-31.698z" fill="#A3A39F"/><path d="M580.121 213.9l-89.216 1.734 16.614 14.791 72.602-16.525z" fill="#E5E5E3"/><path d="M507.519 230.425l72.602-16.525-36.301 28.918-36.301-12.393z" fill="#F6F6F2"/><path d="M497.752 248.429a.713.713 0 01-.65-.396.732.732 0 01-.04-.555.732.732 0 01.359-.426c.599-.306 1.198-.638 1.797-.969a.73.73 0 01.923 1.092.736.736 0 01-.221.183c-.595.348-1.207.68-1.836.994a.749.749 0 01-.332.077zM305.522 237.718a.727.727 0 10-1.058.995 29.848 29.848 0 003.111 2.869.8.8 0 00.459.153.737.737 0 00.708-.519.716.716 0 00-.249-.769 29.738 29.738 0 01-2.971-2.729zM307.767 232.847a.724.724 0 00.68-1.03.726.726 0 00-.336-.347 56.783 56.783 0 01-3.608-1.976.742.742 0 00-.927.317.737.737 0 00.2.958c1.211.688 2.422 1.351 3.659 1.989.1.061.215.092.332.089zM301.595 230.973a.726.726 0 00-.879-.548.714.714 0 00-.536.88 13.8 13.8 0 001.67 4.003.745.745 0 00.625.357.842.842 0 00.383-.102.74.74 0 00.242-1.007 12.682 12.682 0 01-1.505-3.583zM300.601 228.729a.704.704 0 00.612-.344.69.69 0 000-.804.738.738 0 00.242-.446c.19-1.273.623-2.498 1.275-3.608a.73.73 0 00-.274-1.001.73.73 0 00-1.001.274 11.353 11.353 0 00-1.428 3.953c-.625-.396-1.275-.816-1.862-1.275l-.586-.396a.74.74 0 00-.545-.117.73.73 0 00-.582.563.73.73 0 00.298.753l.587.408c.956.65 1.912 1.275 2.881 1.887a.745.745 0 00.383.153zM338.33 253.274c-1.275-.293-2.678-.599-4.004-.944a.743.743 0 00-.892.523.74.74 0 00.535.893c1.343.348 2.695.667 4.055.956h.153a.728.728 0 00.602-1.16.726.726 0 00-.449-.281v.013zM272.638 203.572a.72.72 0 00-1.052-.006.722.722 0 00.045 1.051l2.996 2.857a.742.742 0 00.51.204.702.702 0 00.523-.23.724.724 0 000-1.033l-3.022-2.843zM284.713 214.843a.72.72 0 00-.796-.109.702.702 0 00-.224.173.744.744 0 000 1.033c1.033.918 2.079 1.836 3.137 2.729a.73.73 0 00.472.178.686.686 0 00.548-.268.725.725 0 00.177-.526.715.715 0 00-.253-.494c-.995-.892-2.079-1.798-3.061-2.716zM290.987 220.186a.742.742 0 00-.545-.18.722.722 0 00-.505.271.718.718 0 00-.152.553.72.72 0 00.296.491c1.071.867 2.168 1.721 3.277 2.55a.758.758 0 00.763.065.712.712 0 00.257-.218.719.719 0 00.142-.539.737.737 0 00-.282-.481c-1.097-.803-2.168-1.658-3.251-2.512zM278.644 209.259a.737.737 0 00-1.192.236.729.729 0 00.159.797c1.008.943 2.015 1.887 3.035 2.817a.727.727 0 001.033-.038.725.725 0 00.195-.524.745.745 0 00-.233-.509c-1.046-.892-2.002-1.836-2.997-2.779zM330.323 251.247c-1.309-.4-2.61-.825-3.902-1.275a.712.712 0 00-.558.029.723.723 0 00-.339.973.74.74 0 00.412.375c1.276.446 2.551.867 3.979 1.275a.582.582 0 00.204 0 .727.727 0 00.204-1.428v.051zM315.264 244.973a55.355 55.355 0 01-3.481-2.142.739.739 0 00-1.007.204.726.726 0 00.204 1.007 49.554 49.554 0 003.57 2.194.734.734 0 00.357.102.75.75 0 00.638-.37.728.728 0 00-.281-.995zM331.47 209.59c-1.364.255-2.716.51-4.067.791a.74.74 0 00-.328 1.247.741.741 0 00.468.206h.153l4.042-.79a.74.74 0 00.586-.855.725.725 0 00-.854-.599zM323.348 211.273c-1.351.306-2.703.625-4.042.956a.724.724 0 00-.339 1.269c.14.119.321.181.505.172h.178l4.017-.956a.726.726 0 00.548-.867.69.69 0 00-.106-.269.716.716 0 00-.761-.305zM331.075 240.319c-1.275-.357-2.64-.739-3.953-1.135a.712.712 0 00-.905.485.725.725 0 00.484.905c1.275.408 2.652.791 4.004 1.148a.511.511 0 00.191 0 .74.74 0 00.702-.536.727.727 0 00-.523-.867zM315.264 213.377a42.483 42.483 0 00-3.927 1.518.726.726 0 00-.37.956.743.743 0 00.676.433.63.63 0 00.293 0 38.12 38.12 0 013.825-1.453.736.736 0 00.466-.925.734.734 0 00-.925-.465l-.038-.064zM315.532 234.977a94.557 94.557 0 01-3.749-1.683.722.722 0 00-.825.386.724.724 0 00.201.889c1.275.599 2.55 1.16 3.825 1.708a.695.695 0 00.28 0 .752.752 0 00.676-.433.727.727 0 00-.408-.867zM323.208 237.909a115.587 115.587 0 01-3.826-1.402.751.751 0 00-.943.421.74.74 0 00.421.943 73.82 73.82 0 003.914 1.415c.08.013.162.013.242 0a.72.72 0 00.689-.484.737.737 0 00-.497-.893zM322.672 248.531a62.831 62.831 0 01-3.749-1.671.738.738 0 00-1.042.62.712.712 0 00.418.694c1.275.599 2.55 1.16 3.825 1.708a.73.73 0 00.956-.395.73.73 0 00-.395-.956h-.013zM266.569 197.898a.72.72 0 00-1.033 0 .741.741 0 000 1.033l3.022 2.817a.74.74 0 001.033-.038.737.737 0 000-1.033c-.969-.905-1.976-1.848-3.022-2.779zM165.227 189.367a58.855 58.855 0 00-3.061 2.857.699.699 0 00-.162.787.713.713 0 00.162.233.666.666 0 00.511.216.75.75 0 00.522-.204 62.02 62.02 0 012.984-2.792.732.732 0 00.159-.796.732.732 0 00-.159-.237.716.716 0 00-.956-.064zM179.074 180.059a46.146 46.146 0 00-3.672 2.002.73.73 0 00-.33.817.726.726 0 00.699.535.766.766 0 00.37-.089 65.245 65.245 0 013.596-1.964.729.729 0 00-.158-1.262.725.725 0 00-.505-.013v-.026zM171.857 184.28a71.835 71.835 0 00-3.392 2.435.742.742 0 00-.282.481.734.734 0 00.728.833.692.692 0 00.434-.153 61.1 61.1 0 013.328-2.385.74.74 0 00.204-1.007.734.734 0 00-.467-.317.716.716 0 00-.553.113zM186.737 176.732a95.862 95.862 0 00-3.825 1.555.723.723 0 00-.414.813.727.727 0 00.707.577.848.848 0 00.293 0 80.215 80.215 0 013.826-1.53.726.726 0 00.433-.931.723.723 0 00-.707-.556.736.736 0 00-.313.072zM304.681 220.696a.74.74 0 00.497-.191 20.482 20.482 0 013.175-2.41.71.71 0 00.343-.729.74.74 0 00-.84-.609.74.74 0 00-.268.101 22.252 22.252 0 00-3.404 2.55.726.726 0 00.497 1.275v.013zM441.139 219.816a16.566 16.566 0 013.137 2.41.74.74 0 00.51.217.727.727 0 00.522-1.237 18.07 18.07 0 00-3.404-2.639.722.722 0 00-.273-.098.727.727 0 00-.552.138.751.751 0 00-.279.778.76.76 0 00.339.457v-.026zM424.78 214.333c1.275.345 2.652.714 3.978 1.097h.204a.753.753 0 00.701-.536.73.73 0 00-.256-.766.729.729 0 00-.254-.126c-1.275-.383-2.665-.753-4.004-1.11a.73.73 0 00-.369 1.416v.025zM416.464 212.12c1.306.195 2.716.404 4.078.632l.202-.024a.75.75 0 00.635-.613.711.711 0 00-.013-.283.719.719 0 00-.596-.545c-1.311-.233-2.734-.44-4.105-.641a.73.73 0 10-.204 1.449l.003.025zM194.744 174.309a85.924 85.924 0 00-4.042 1.096.73.73 0 00-.529.811.727.727 0 00.746.617h.204a67.14 67.14 0 013.953-1.071.723.723 0 00.557-.593.725.725 0 00-.127-.547.733.733 0 00-.762-.288v-.025zM260.385 192.377a.735.735 0 00-1.171.34.736.736 0 00.227.782c1.046.88 2.079 1.785 3.112 2.703a.753.753 0 00.784.117.729.729 0 00.248-.181.738.738 0 000-1.033c-1.109-.918-2.116-1.823-3.2-2.728zM246.997 182.495a.716.716 0 00-.552-.095.734.734 0 00-.455.324.737.737 0 00.242 1.008c1.135.701 2.282 1.453 3.442 2.231a.728.728 0 001.008-.191.725.725 0 00-.191-1.007 80.75 80.75 0 00-3.494-2.27zM202.956 172.83a74.537 74.537 0 00-4.131.625.725.725 0 00-.358 1.247.723.723 0 00.485.194h.141a55.435 55.435 0 014.042-.612.748.748 0 00.487-.276.728.728 0 00.15-.541.732.732 0 00-.816-.637zM253.882 187.149a.723.723 0 00-.542-.135.732.732 0 00-.613.83.734.734 0 00.288.478 75.04 75.04 0 013.251 2.55.675.675 0 00.447.166.749.749 0 00.732-.815.707.707 0 00-.273-.486c-1.084-.867-2.181-1.721-3.29-2.588zM235.84 176.821a57.776 57.776 0 00-3.94-1.403.72.72 0 00-.783.219.696.696 0 00-.135.253.713.713 0 00.045.557.725.725 0 00.427.361c1.275.408 2.55.867 3.825 1.364a.672.672 0 00.268 0 .737.737 0 00.623-1.083.739.739 0 00-.355-.332l.025.064zM243.388 180.391c-1.275-.676-2.473-1.275-3.71-1.9a.743.743 0 00-.969.344.717.717 0 00.113.802.705.705 0 00.231.167c1.275.587 2.436 1.212 3.634 1.862.11.059.232.09.357.089a.715.715 0 00.725-.643.74.74 0 00-.159-.539.71.71 0 00-.222-.182zM227.871 174.271a70.178 70.178 0 00-4.093-.88.729.729 0 00-.842.586.744.744 0 00.587.855c1.275.242 2.69.535 3.991.854h.178a.739.739 0 00.714-.548.75.75 0 00-.535-.867zM211.308 172.307c-1.377 0-2.78 0-4.17.14a.728.728 0 000 1.454 73.118 73.118 0 014.093-.14.724.724 0 00.672-.449.737.737 0 000-.556.725.725 0 00-.672-.449h.077zM219.647 172.779a75.058 75.058 0 00-4.17-.37.707.707 0 00-.533.177.719.719 0 00-.232.512.728.728 0 00.689.777c1.351.077 2.728.192 4.067.345h.09a.737.737 0 00.726-.651.728.728 0 00-.637-.79zM428.822 257.852l-4.131.14a.755.755 0 00-.702.765.725.725 0 00.727.701l4.144-.153a.741.741 0 00.701-.752.747.747 0 00-.739-.701zM432.915 238.254a.644.644 0 00.255 0 97.065 97.065 0 003.825-1.543.707.707 0 00.452-.666.699.699 0 00-.057-.278.73.73 0 00-.395-.397.73.73 0 00-.561.002 93.42 93.42 0 01-3.825 1.517.738.738 0 00-.415.381.739.739 0 00-.019.563.734.734 0 00.304.327.737.737 0 00.436.094zM428.784 238.215c-1.276.421-2.614.829-3.928 1.275a.736.736 0 00-.437.349.737.737 0 00-.06.557.74.74 0 00.701.522.538.538 0 00.204 0 62.366 62.366 0 003.979-1.275.728.728 0 00-.459-1.377v-.051zM437.084 257.507l-4.131.179a.723.723 0 00-.727.727.726.726 0 00.727.726l4.131-.165a.74.74 0 00.489-1.254.731.731 0 00-.489-.213zM438.079 216.679a26.2 26.2 0 00-1.581-.561l-2.397-.752a.734.734 0 00-.555.05.723.723 0 00-.357.428.73.73 0 00.478.912l2.385.752c.497.153.994.332 1.491.523.089.018.18.018.268 0a.701.701 0 00.676-.459.718.718 0 00-.408-.893zM420.853 240.523a87.934 87.934 0 01-4.004.957.725.725 0 00-.34 1.268c.141.12.321.181.506.172h.153c1.351-.306 2.703-.624 4.054-.969a.739.739 0 00.523-.892.719.719 0 00-.605-.552.73.73 0 00-.287.016zM440.846 234.964l.408-.191a22.233 22.233 0 003.315-1.887.742.742 0 00.166-1.02.739.739 0 00-1.02-.166 20.084 20.084 0 01-3.086 1.747l-.408.204a.718.718 0 00-.344.969.72.72 0 00.969.344zM408.931 244.527h.115c1.368-.221 2.732-.463 4.093-.727a.717.717 0 00.464-.308.73.73 0 00.109-.546.711.711 0 00-.854-.574c-1.339.255-2.69.497-4.055.714a.731.731 0 00-.405 1.286c.148.124.34.185.533.168v-.013zM413.202 258.362l-4.131.076a.727.727 0 000 1.454l4.131-.064a.744.744 0 00.714-.74.75.75 0 00-.714-.726zM420.559 258.132l-4.131.128a.714.714 0 00-.51.221.721.721 0 00.017 1.02.737.737 0 00.506.212l4.144-.115a.735.735 0 00.701-.752.727.727 0 00-.727-.714zM453.609 256.742l-4.118.23a.723.723 0 00-.727.726.723.723 0 00.727.727c1.377-.063 2.767-.14 4.144-.229a.722.722 0 00.507-.236.718.718 0 00.181-.529.754.754 0 00-.714-.689z" fill="#fff"/><path d="M429.373 273.824s-12.952 3.806-25.811.276c-7.942-2.176-13.769-6.582-17.061-9.629l-2.15 15.429-2.823-15.227c-2.125 3.267-6.244 8.077-13.267 10.862-11.372 4.514-25.529 1.81-25.529 1.81s7.652-11.357 19.024-15.871a28.67 28.67 0 014.612-1.398c-4.403-.903-9.507-2.361-15.117-4.69-18.965-7.867-35.659-22.295-35.659-22.295s19.667.651 38.631 8.518a91.585 91.585 0 0116.724 9.077c-5.545-5.367-12.413-12.871-19.512-22.707-16.457-22.815-29.611-48.478-29.775-48.88.271.232 23.583 18.163 40.064 41.006 5.026 6.971 9.001 13.497 12.094 19.204a186.807 186.807 0 01-7.095-26.971c-5.64-30.425-7.488-59.745-7.488-59.745s16.947 28.706 22.587 59.132c1.948 10.507 2.735 19.659 2.936 27.14a130.226 130.226 0 014.847-19.893c7.824-23.831 14.502-42.98 14.687-43.231-.014.409 6.156 26.356-1.655 50.157-3.37 10.258-7.379 18.199-10.858 23.934 3.255-3.367 7.57-7.017 13.127-10.283 14.413-8.471 27.973-11.333 30.861-11.719 0 0-7.077 15.772-22.864 25.051a62.577 62.577 0 01-13.165 5.839l.196.025a35.28 35.28 0 014.862.98c8.183 2.245 15.901 7.342 20.435 10.752a75.025 75.025 0 013.042 2.404c.084.071.16.134.236.201.558.469.864.742.864.742z" fill="#41B787"/><path d="M422.598 274.544s-12.233 3.796-24.455.218c-7.55-2.206-13.117-6.648-16.269-9.718l2.835 15.311-4.71.192-2.835-15.311c-1.98 3.279-5.832 8.104-12.458 10.886-10.728 4.511-24.173 1.761-24.173 1.761s7.133-11.397 17.861-15.908a25.75 25.75 0 014.356-1.394c-4.182-.918-9.034-2.395-14.375-4.749-18.054-7.95-34.025-22.49-34.025-22.49s18.643.699 36.697 8.65a86.77 86.77 0 0115.943 9.162c-5.311-5.408-11.899-12.965-18.729-22.868-15.835-22.968-26.265-48.886-26.425-49.291.26.235 20.234 18.404 36.092 41.401a183.754 183.754 0 0111.662 19.33 198.995 198.995 0 01-7.007-27.125c-5.665-30.593-3.946-60.219-3.946-60.219s12.583 29.045 18.248 59.638c1.956 10.565 2.799 19.765 3.068 27.284a136.345 136.345 0 014.383-19.982c7.164-23.934 20.161-43.444 20.334-43.697-.009.412-.76 26.784-7.911 50.688-3.086 10.302-6.802 18.274-10.038 24.03a58.12 58.12 0 0112.331-10.304c13.569-8.481 29.839-11.049 32.571-11.431.166-.023.283-.04.346-.047.034-.005.052-.006.052-.006s-10.388 15.612-25.25 24.902a56.802 56.802 0 01-12.414 5.838s.065.01.185.025c1.459.203 3.003.522 4.618.996 7.779 2.276 15.145 7.417 19.478 10.854a73.501 73.501 0 012.908 2.424c.081.071.153.135.226.203.534.472.826.747.826.747z" fill="#4BC999"/><path d="M339.083 242.219a152.15 152.15 0 01-4.017-.892.752.752 0 00-.88.535.74.74 0 00.287.764.728.728 0 00.262.116c1.351.331 2.703.625 4.054.905h.153a.728.728 0 00.714-.574.74.74 0 00-.573-.854zM470.019 255.187c-1.351.204-2.716.37-4.08.523a.734.734 0 00-.618.53.726.726 0 00-.019.286.726.726 0 00.726.637h.077c1.377-.153 2.754-.331 4.131-.523a.744.744 0 00.541-.823.74.74 0 00-.758-.63zM478.116 253.759c-1.339.28-2.678.548-4.029.79a.74.74 0 00-.599.842.726.726 0 00.726.599h.128c1.364-.242 2.729-.497 4.08-.791a.726.726 0 00.561-.867.73.73 0 00-.867-.561v-.012zM494.692 249.194a.739.739 0 00-.969-.37 95.212 95.212 0 01-3.825 1.53.74.74 0 00-.158 1.287.715.715 0 00.413.128.55.55 0 00.255 0c1.275-.484 2.626-1.007 3.825-1.568a.747.747 0 00.456-.4.739.739 0 00.003-.607zM404.736 243.66c-1.365.179-2.729.357-4.093.51a.73.73 0 00-.618.53.727.727 0 00.222.743.728.728 0 00.485.181h.076c1.378-.166 2.755-.332 4.132-.523a.727.727 0 00-.204-1.441zM461.846 256.13c-1.377.128-2.741.243-4.118.345a.726.726 0 100 1.453h.102a229.91 229.91 0 004.131-.344.727.727 0 00.663-.791.753.753 0 00-.778-.663zM446.788 224.457a.741.741 0 00-.472.919c.162.489.244 1.001.242 1.517a5.1 5.1 0 01-.433 2.014l.675.281.714.178a6.23 6.23 0 00.192-4.437.732.732 0 00-.359-.432.712.712 0 00-.559-.04zM445.359 257.163l-4.144.178a.728.728 0 000 1.454l4.132-.179a.726.726 0 100-1.453h.012zM486.06 251.68a84.596 84.596 0 01-3.953 1.122.747.747 0 00-.436.343.743.743 0 00.181.946c.127.1.284.154.446.152h.179a87.29 87.29 0 004.016-1.148.714.714 0 00.472-.905.73.73 0 00-.905-.51zM396.55 244.604c-1.377.127-2.742.242-4.119.344a.716.716 0 00-.663.778.727.727 0 00.727.675l4.144-.344a.723.723 0 00.65-.803.714.714 0 00-.739-.65zM347.893 207.18c-1.377.14-2.741.306-4.118.485a.725.725 0 00-.638.803.744.744 0 00.727.637h.089c1.365-.178 2.729-.331 4.106-.484a.73.73 0 00.661-.515.739.739 0 00-.066-.575.728.728 0 00-.761-.351zM355.378 244.68c-1.377-.14-2.742-.293-4.106-.459a.723.723 0 00-.803.637.719.719 0 00.144.533.723.723 0 00.481.271c1.377.178 2.754.331 4.131.471h.076a.733.733 0 00.695-.413.726.726 0 00-.618-1.04zM361.014 256.844l-4.106-.433a.722.722 0 00-.505.172.723.723 0 00-.114.986c.11.148.272.249.453.283a156.5 156.5 0 004.119.433h.063a.728.728 0 00.077-1.454l.013.013zM347.192 243.66a150.066 150.066 0 01-4.055-.663.725.725 0 00-.727 1.134.75.75 0 00.472.307c1.365.229 2.729.459 4.093.663h.115a.757.757 0 00.727-.625.737.737 0 00-.625-.816zM363.589 245.305a226.123 226.123 0 01-4.105-.268.737.737 0 00-.791.676.73.73 0 00.401.703.732.732 0 00.275.075c1.377.114 2.767.204 4.144.267a.734.734 0 00.642-.733.74.74 0 00-.642-.733l.076.013zM339.656 208.226c-1.364.191-2.729.408-4.093.637a.744.744 0 00-.599.842.725.725 0 00.714.612h.127c1.352-.23 2.704-.446 4.068-.638a.726.726 0 00.65-.854.704.704 0 00-.301-.491.71.71 0 00-.566-.108zM346.427 254.804a151.93 151.93 0 01-4.068-.714.723.723 0 00-.741.321.704.704 0 00-.1.266.734.734 0 00.11.546.722.722 0 00.464.308c1.364.255 2.728.484 4.093.714h.114a.727.727 0 00.791-.663.728.728 0 00-.663-.791v.013zM354.549 256.003c-1.364-.179-2.729-.357-4.093-.561a.71.71 0 00-.283.016.727.727 0 00.079 1.425c1.364.204 2.741.395 4.106.573h.191a.713.713 0 00.714-.637.722.722 0 00-.418-.75.722.722 0 00-.296-.066zM371.826 245.585c-1.364 0-2.741 0-4.118-.089a.727.727 0 000 1.454c1.39 0 2.767.076 4.156.102a.74.74 0 000-1.467h-.038zM362.267 206.334c-1.391.03-2.768.071-4.158.127a.738.738 0 00-.625 1.036.702.702 0 00.406.375.714.714 0 00.279.041c1.374-.092 2.754-.095 4.119-.123a.716.716 0 00.679-.736.726.726 0 00-.7-.72zM388.325 245.216l-2.422.127-1.696.077a.726.726 0 100 1.453l1.721-.076 2.423-.128a.712.712 0 00.275-.07.717.717 0 00.373-.414.724.724 0 00.041-.281.714.714 0 00-.715-.688zM388.786 206.582l-4.131-.306a.738.738 0 00-.778.676.715.715 0 00.402.703.727.727 0 00.274.075c1.377.089 2.742.191 4.119.306h.063a.74.74 0 000-1.467l.051.013zM380.05 245.547h-4.118a.74.74 0 000 1.467c1.39 0 2.767-.001 4.157-.064a.741.741 0 00.714-.74.732.732 0 00-.753-.663zM353.209 206.561l-.839.056c-.09.377-.22.922-.323 1.479l1.272-.086a.728.728 0 00.43-1.272.726.726 0 00-.527-.178l-.013.001zM158.405 198.178a.783.783 0 01-.459-.153.738.738 0 01-.102-1.032c.446-.549.893-1.084 1.352-1.607a.727.727 0 011.032-.064.72.72 0 01.209.777.715.715 0 01-.145.243l-1.275 1.569a.74.74 0 01-.612.267z" fill="#fff"/><path d="M71.152 370.759c-.383 1.556-3.914 18.361-3.914 18.361l-36.659-3.519 40.573-14.842z" fill="#A3A39F"/><path d="M24 364.167l47.152 6.643-40.573 14.842L24 364.167z" fill="#F6F6F2"/><path d="M71.152 370.81l34.236 15.556-74.809-.714 40.573-14.842z" fill="#E5E5E3"/><path d="M84.074 368.096l-2.008.482.339 1.413 2.008-.482-.339-1.413zM88.43 368.54l-.37-1.415 3.978-.982.357 1.415-3.966.982zm7.968-1.976l-.356-1.415 3.965-1.02.37 1.402c-1.326.357-2.652.689-3.978 1.033zm7.957-2.078l-.383-1.403 3.953-1.097.395 1.403c-1.326.383-2.639.74-3.965 1.097zm7.931-2.219l-.421-1.403 3.927-1.173.434 1.39-3.94 1.186zm7.854-2.435l-.446-1.378c1.275-.42 2.55-.854 3.825-1.275l.472 1.377c-1.258.426-2.546.851-3.863 1.276h.012zm7.791-2.665l-.497-1.377c1.275-.459 2.55-.944 3.825-1.441l.523 1.364c-1.288.497-2.576 1.02-3.864 1.454h.013zm7.65-2.984l-.561-1.352a239.4 239.4 0 003.826-1.606l.586 1.339c-1.3.548-2.563 1.096-3.838 1.619h-.013zm7.536-3.328l-.625-1.275c1.275-.574 2.461-1.173 3.672-1.785l.664 1.275c-1.212.586-2.449 1.199-3.698 1.785h-.013zm7.357-3.736l-.688-1.275c1.185-.65 2.371-1.275 3.544-2.015l.74 1.276c-1.173.697-2.35 1.368-3.532 2.014h-.064zm7.128-4.157l-.778-1.275a139.519 139.519 0 003.404-2.244l.817 1.212c-1.123.777-2.27 1.568-3.43 2.307h-.013zm6.809-4.666l-.867-1.173c1.083-.816 2.167-1.645 3.226-2.551l.905 1.148a62.47 62.47 0 01-3.252 2.576h-.012zm6.439-5.177l-.956-1.097a87.838 87.838 0 003.021-2.741l1.008 1.071a90.839 90.839 0 01-3.06 2.767h-.013zm6.018-5.661l-1.045-1.021c.956-.981 1.887-1.963 2.792-2.97l1.084.969a67.026 67.026 0 01-2.818 2.971l-.013.051zm5.534-6.159l-1.135-.918a155.403 155.403 0 002.55-3.2l1.161.867a93.026 93.026 0 01-2.563 3.251h-.013zm4.96-6.618l-1.211-.816a92.376 92.376 0 002.206-3.43l1.275.765a88.716 88.716 0 01-2.257 3.456l-.013.025zm4.297-7.076l-1.275-.689a96.8 96.8 0 001.836-3.634l1.275.625a49.37 49.37 0 01-1.823 3.698h-.013zm-14.255-2.627v-1.454c1.339 0 2.703-.076 4.042-.191l.127 1.454a56.34 56.34 0 01-4.157.191h-.012zm-4.157-.102a50.178 50.178 0 01-3.06-.28l-1.084-.141.217-1.441 1.033.141c.994.115 1.989.204 2.996.267l-.102 1.454zm12.432-.586l-.217-1.441a66.145 66.145 0 003.966-.778l.331 1.428a60.492 60.492 0 01-4.067.791h-.013zm-20.669-.702a38.266 38.266 0 01-3.978-1.275l.535-1.351c1.252.491 2.529.917 3.826 1.275l-.383 1.351zm28.766-1.173l-.434-1.39c1.275-.395 2.55-.841 3.825-1.275l.536 1.352c-1.263.446-2.538.905-3.915 1.313h-.012zm-36.544-1.9a30.334 30.334 0 01-3.545-2.244l.855-1.173a28.916 28.916 0 003.391 2.13l-.701 1.287zm37.959-.408l-1.352-.548c.51-1.275.982-2.55 1.403-3.825l1.377.459a42.827 42.827 0 01-1.454 3.914h.026zm6.375-.688l-.625-1.275c1.276-.574 2.436-1.199 3.596-1.862l.727 1.275a84.954 84.954 0 01-3.723 1.862h.025zm-51.028-3.889a20.557 20.557 0 01-2.639-3.328l1.275-.778a19.61 19.61 0 002.461 3.086l-1.097 1.02zm58.258-.191l-.803-1.212a53.458 53.458 0 003.06-2.206l.229-.165.88 1.16-.153.115a77.243 77.243 0 01-3.251 2.295l.038.013zm-10.915-3.073l-1.415-.383c.357-1.275.676-2.627.944-3.94l1.428.293c-.319 1.326-.638 2.678-.995 4.017l.038.013zm17.469-2.04l-1.059-1.072a60.54 60.54 0 002.895-2.843l1.058 1.007a47.988 47.988 0 01-2.933 2.895l.039.013zm-69.288-1.875a16.33 16.33 0 01-.777-4.208l1.428-.089c.055 1.302.291 2.589.701 3.825l-1.352.472zm75-4.157l-1.122-.918a66.344 66.344 0 002.448-3.226l1.186.842c-.829 1.122-1.632 2.231-2.55 3.29l.038.012zm-21.536 0l-1.441-.204c.145-1.003.26-2.023.345-3.06l.076-.956 1.454.089-.077.995c-.127.982-.242 2.027-.395 3.073l.038.063zm-52.482-3.965l-1.428-.319a18.704 18.704 0 011.428-4.016l1.275.637a16.753 16.753 0 00-1.275 3.698zm78.723-2.831l-1.275-.752a56.759 56.759 0 001.976-3.532l1.275.663c-.535 1.224-1.224 2.448-1.976 3.621zm-27.286-1.504a21.227 21.227 0 00-.587-3.915l1.415-.357c.343 1.371.552 2.772.625 4.182l-1.453.09zm-48.032-2.78l-1.173-.88a26.854 26.854 0 012.818-3.136l1.007 1.058a24.719 24.719 0 00-2.652 2.958zm79.143-3.086l-1.351-.561a67.089 67.089 0 001.453-3.825l1.377.472a50.477 50.477 0 01-1.479 3.914zm-33.152-1.644a10.92 10.92 0 00-2.001-2.551l-.447-.395.918-1.122c.184.143.358.296.523.459a12.26 12.26 0 012.27 2.869l-1.263.74zm-40.292-.753l-.854-1.186a29.05 29.05 0 011.721-1.147c.574-.357 1.275-.727 1.836-1.071l.702 1.275a28.862 28.862 0 00-3.366 2.104l-.039.025zm7.026-3.825l-.548-1.339a39.139 39.139 0 013.952-1.377l.408 1.403a39.487 39.487 0 00-3.774 1.262l-.038.051zm27.478-.319a26.038 26.038 0 00-2.793-.994l-.994-.281.369-1.402 1.046.293c1.004.283 1.988.633 2.945 1.046l-.573 1.338zm41.58-1.275l-1.416-.37c.345-1.275.638-2.639.88-3.952l1.441.268a44.221 44.221 0 01-.867 3.991l-.038.063zm-61.331-.612l-.255-1.428a37.71 37.71 0 014.157-.51l.089 1.454a38.247 38.247 0 00-3.953.42l-.038.064zm12.024-.178a37.824 37.824 0 00-4.004-.37v-1.454c1.396.05 2.788.178 4.169.383l-.165 1.441zm50.798-7.383l-1.44-.153c.14-1.275.216-2.703.255-4.029h1.453a34.831 34.831 0 01-.229 4.118l-.039.064zm-1.275-8.224a44.634 44.634 0 00-.446-4.004l1.428-.242c.23 1.376.388 2.764.472 4.157l-1.454.089zm-1.275-7.944a33.24 33.24 0 00-1.275-3.825l1.352-.548a37.187 37.187 0 011.275 3.978l-1.352.395zm-2.958-7.446a29.954 29.954 0 00-2.04-3.226l-.115-.153 1.173-.867.128.166a30.29 30.29 0 012.129 3.378l-1.275.702zm-4.73-6.376a33.623 33.623 0 00-2.958-2.715l.93-1.135a34.426 34.426 0 013.073 2.843l-1.045 1.007zm-6.21-5.1a41.559 41.559 0 00-3.468-2.04l.676-1.275a42.025 42.025 0 013.595 2.104l-.803 1.211zm-7.128-3.825a52.071 52.071 0 00-3.825-1.466l.485-1.377c1.275.471 2.639.981 3.825 1.504l-.485 1.339zm-7.65-2.69a87.874 87.874 0 00-3.927-1.021l.319-1.415c1.364.319 2.716.663 4.016 1.033l-.408 1.403zm-60.795-.536v-1.454a35.233 35.233 0 004.016-.242l.153 1.454a37.946 37.946 0 01-4.157.166l-.012.076zm-4.208-.319a20.059 20.059 0 01-4.093-1.147l.536-1.352a19.65 19.65 0 003.825 1.058l-.268 1.441zm12.483-.51l-.242-1.428 2.614-.459 1.428-.242.242 1.428-1.428.255-2.614.446zm44.627-.484a143.138 143.138 0 00-4.016-.676l.217-1.441c1.364.204 2.716.434 4.067.689l-.268 1.428zm-36.53-.855l-.192-1.44a132.85 132.85 0 014.093-.498l.153 1.454c-1.389.064-2.665.229-4.067.408l.013.076zm28.472-.357c-1.352-.153-2.703-.28-4.068-.382l.115-1.454c1.377.102 2.742.23 4.119.383l-.166 1.453zm-20.401-.471l-.089-1.454a88.66 88.66 0 014.118-.204v1.454c-1.288-.026-2.639.038-4.004.127l-.025.077zm12.228-.153c-1.352 0-2.716-.09-4.068-.102v-1.454c1.377 0 2.754 0 4.131.089l-.063 1.467zm-48.746-.332a13.934 13.934 0 01-3.099-3.009l1.173-.867a12.676 12.676 0 002.767 2.69l-.841 1.186zm-5.011-6.911a11.618 11.618 0 01-.446-3.264v-1.046l1.453.115v.931c-.005.97.128 1.936.395 2.869l-1.402.395zm1.963-7.982l-1.364-.523a20.254 20.254 0 011.976-3.825l1.276.804a18.34 18.34 0 00-1.888 3.544zm4.297-6.605l-1.058-.994a26.25 26.25 0 013.099-2.844l.905 1.148a25.584 25.584 0 00-2.946 2.627v.063zm6.261-4.909l-.714-1.275a28.611 28.611 0 013.825-1.81l.523 1.364a27.231 27.231 0 00-3.634 1.658v.063zm7.421-2.843l-.281-1.428a18.07 18.07 0 014.246-.357v1.453a17.28 17.28 0 00-3.965.268v.064zM154.21 180.404a11.146 11.146 0 00-1.76-.842l.523-1.364c.688.254 1.35.574 1.977.956l-.74 1.25z" fill="#fff"/><path d="M411.704 318.927c1.188-7.462-11.835-15.739-29.089-18.487-17.254-2.748-32.204 1.073-33.393 8.535-1.188 7.462 11.835 15.739 29.089 18.487 17.254 2.748 32.204-1.073 33.393-8.535zM774.136 375.107c12.528 0 22.684-3.916 22.684-8.747 0-4.831-10.156-8.747-22.684-8.747s-22.683 3.916-22.683 8.747c0 4.831 10.155 8.747 22.683 8.747z" fill="#262320" opacity=".3"/><path d="M33.627 413.844l.676-15.403 58.933 7.701-59.61 7.702z" fill="#262320" opacity=".5"/><path d="M495.317 332.315l29.314 5.152 37.767-24.941-52.201 11.208-8.314-5.164-20.311 5.151 13.745 8.594z" fill="#262320" opacity=".3"/><path d="M825.137 339.112s-15.092 3.096-28.579-.729c-8.332-2.359-13.868-6.741-16.882-9.744l-5.537 14.481v-14.481c-3.018 3.002-8.555 7.385-16.886 9.744-13.492 3.825-28.584.729-28.584.729s10.784-10.426 24.276-14.251a40.677 40.677 0 015.383-1.143 89.806 89.806 0 01-15.745-5.006c-19.347-8.153-34.84-22.413-34.84-22.413s21.6 1.369 40.947 9.522c6.818 2.874 12.334 6.157 16.621 9.21-5.027-5.279-11.081-12.625-16.911-22.183-13.512-22.166-22.791-46.895-22.89-47.281.252.23 22.34 18.049 35.873 40.244 4.127 6.773 7.183 13.085 9.432 18.591-1.311-7.069-2.316-15.737-2.316-25.731 0-28.936 3.965-56.682 3.965-56.682s12.847 27.746 12.847 56.682c0 9.994-1.005 18.662-2.316 25.731 2.25-5.506 5.301-11.818 9.432-18.591 13.529-22.195 24.831-40.014 25.087-40.244-.099.386 1.404 25.115-12.104 47.281-5.826 9.553-11.883 16.895-16.903 22.175 4.288-3.053 9.804-6.332 16.614-9.202 17.663-7.443 33.234-9.625 36.504-9.878 0 0-11.051 14.616-30.397 22.769a89.735 89.735 0 01-15.746 5.006l.211.032c1.659.245 3.391.604 5.173 1.111 8.584 2.433 16.068 7.541 20.38 10.933.136.105.269.211.397.316a64.801 64.801 0 012.473 2.07c.078.07.149.133.219.199.521.464.802.733.802.733z" fill="#41B787"/><path d="M817.928 339.498s-14.329 3.117-27.135-.735c-7.91-2.375-13.167-6.787-16.028-9.81v14.58h-5.257v-14.58c-2.866 3.023-8.122 7.435-16.033 9.81-12.81 3.851-27.139.735-27.139.735s10.239-10.498 23.049-14.349c1.762-.53 3.47-.903 5.111-1.15a81.775 81.775 0 01-14.949-5.041c-18.369-8.209-33.079-22.565-33.079-22.565s20.508 1.378 38.877 9.586c6.473 2.894 11.711 6.199 15.781 9.273-4.773-5.315-10.521-12.711-16.056-22.333-12.829-22.318-19.067-47.216-19.161-47.604.239.232 18.639 18.172 31.488 40.518 3.918 6.819 6.819 13.175 8.954 18.718-1.244-7.118-2.198-15.845-2.198-25.906 0-29.133 7.981-57.069 7.981-57.069s7.981 27.936 7.981 57.069c0 10.061-.954 18.788-2.198 25.906 2.135-5.543 5.032-11.899 8.954-18.718 12.845-22.346 31.245-40.286 31.489-40.518-.094.389-6.337 25.286-19.162 47.604-5.531 9.618-11.282 17.01-16.048 22.325 4.071-3.074 9.308-6.375 15.774-9.264 16.77-7.494 35.319-9.296 38.425-9.552.188-.015.322-.027.392-.031.04-.004.059-.004.059-.004s-14.71 14.357-33.078 22.565a81.707 81.707 0 01-14.95 5.041s.071.012.201.031c1.574.247 3.219.609 4.911 1.119 8.15 2.45 15.255 7.592 19.35 11.008a61.721 61.721 0 012.724 2.402c.075.071.142.134.208.2.495.468.762.739.762.739z" fill="#4BC999"/><path d="M945.12 185l-5.256-9.54h-1.476V185h-6.156v-25.272h10.332c1.992 0 3.684.348 5.076 1.044 1.416.696 2.472 1.656 3.168 2.88.696 1.2 1.044 2.544 1.044 4.032 0 1.68-.48 3.18-1.44 4.5-.936 1.32-2.328 2.256-4.176 2.808L952.068 185h-6.948zm-6.732-13.896h3.816c1.128 0 1.968-.276 2.52-.828.576-.552.864-1.332.864-2.34 0-.96-.288-1.716-.864-2.268-.552-.552-1.392-.828-2.52-.828h-3.816v6.264zm36.264 3.528c0 .576-.036 1.176-.108 1.8h-13.932c.096 1.248.492 2.208 1.188 2.88.72.648 1.596.972 2.628.972 1.536 0 2.604-.648 3.204-1.944h6.552a8.874 8.874 0 01-1.836 3.564c-.864 1.056-1.956 1.884-3.276 2.484-1.32.6-2.796.9-4.428.9-1.968 0-3.72-.42-5.256-1.26-1.536-.84-2.736-2.04-3.6-3.6-.864-1.56-1.296-3.384-1.296-5.472 0-2.088.42-3.912 1.26-5.472.864-1.56 2.064-2.76 3.6-3.6 1.536-.84 3.3-1.26 5.292-1.26 1.944 0 3.672.408 5.184 1.224a8.672 8.672 0 013.528 3.492c.864 1.512 1.296 3.276 1.296 5.292zm-6.3-1.62c0-1.056-.36-1.896-1.08-2.52-.72-.624-1.62-.936-2.7-.936-1.032 0-1.908.3-2.628.9-.696.6-1.128 1.452-1.296 2.556h7.704zm8.324 1.908c0-2.064.384-3.876 1.152-5.436.792-1.56 1.86-2.76 3.204-3.6 1.344-.84 2.844-1.26 4.5-1.26 1.416 0 2.652.288 3.708.864 1.08.576 1.908 1.332 2.484 2.268v-2.844h6.156V185h-6.156v-2.844c-.6.936-1.44 1.692-2.52 2.268-1.056.576-2.292.864-3.708.864-1.632 0-3.12-.42-4.464-1.26-1.344-.864-2.412-2.076-3.204-3.636-.768-1.584-1.152-3.408-1.152-5.472zm15.048.036c0-1.536-.432-2.748-1.296-3.636-.84-.888-1.872-1.332-3.096-1.332s-2.268.444-3.132 1.332c-.84.864-1.26 2.064-1.26 3.6s.42 2.76 1.26 3.672c.864.888 1.908 1.332 3.132 1.332 1.224 0 2.256-.444 3.096-1.332.864-.888 1.296-2.1 1.296-3.636zm9.386-.036c0-2.064.38-3.876 1.15-5.436.79-1.56 1.86-2.76 3.21-3.6 1.34-.84 2.84-1.26 4.5-1.26 1.32 0 2.52.276 3.6.828 1.1.552 1.96 1.296 2.59 2.232v-9.324h6.15V185h-6.15v-2.88c-.58.96-1.41 1.728-2.49 2.304-1.05.576-2.29.864-3.7.864-1.66 0-3.16-.42-4.5-1.26-1.35-.864-2.42-2.076-3.21-3.636-.77-1.584-1.15-3.408-1.15-5.472zm15.05.036c0-1.536-.43-2.748-1.3-3.636-.84-.888-1.87-1.332-3.09-1.332-1.23 0-2.27.444-3.14 1.332-.84.864-1.26 2.064-1.26 3.6s.42 2.76 1.26 3.672c.87.888 1.91 1.332 3.14 1.332 1.22 0 2.25-.444 3.09-1.332.87-.888 1.3-2.1 1.3-3.636zm31.13-10.044l-12.6 29.628h-6.63l4.61-10.224-8.17-19.404h6.88l4.64 12.564 4.61-12.564h6.66zm21.05 14.868V185h-3.13c-2.24 0-3.98-.54-5.22-1.62-1.25-1.104-1.88-2.892-1.88-5.364v-7.992h-2.44v-5.112h2.44v-4.896h6.16v4.896h4.03v5.112h-4.03v8.064c0 .6.14 1.032.43 1.296s.77.396 1.44.396h2.2zm12.57 5.508c-1.97 0-3.74-.42-5.33-1.26-1.56-.84-2.79-2.04-3.7-3.6-.89-1.56-1.34-3.384-1.34-5.472 0-2.064.46-3.876 1.37-5.436.91-1.584 2.16-2.796 3.75-3.636 1.58-.84 3.36-1.26 5.32-1.26 1.97 0 3.75.42 5.33 1.26 1.59.84 2.83 2.052 3.75 3.636.91 1.56 1.36 3.372 1.36 5.436s-.46 3.888-1.4 5.472a9.234 9.234 0 01-3.78 3.6c-1.58.84-3.36 1.26-5.33 1.26zm0-5.328c1.18 0 2.17-.432 2.99-1.296.84-.864 1.26-2.1 1.26-3.708s-.41-2.844-1.22-3.708c-.8-.864-1.78-1.296-2.96-1.296-1.2 0-2.19.432-2.98 1.296-.8.84-1.19 2.076-1.19 3.708 0 1.608.38 2.844 1.15 3.708.79.864 1.78 1.296 2.95 1.296zm29.04-15.336c1.42 0 2.65.288 3.71.864 1.08.576 1.91 1.332 2.48 2.268v-2.844h6.16v20.052c0 1.848-.37 3.516-1.12 5.004-.72 1.512-1.83 2.712-3.35 3.6-1.48.888-3.34 1.332-5.58 1.332-2.97 0-5.38-.708-7.23-2.124-1.85-1.392-2.91-3.288-3.17-5.688h6.08c.2.768.65 1.368 1.37 1.8.72.456 1.61.684 2.67.684 1.27 0 2.28-.372 3.02-1.116.77-.72 1.15-1.884 1.15-3.492v-2.844c-.6.936-1.43 1.704-2.48 2.304-1.06.576-2.29.864-3.71.864-1.66 0-3.16-.42-4.5-1.26-1.34-.864-2.41-2.076-3.2-3.636-.77-1.584-1.16-3.408-1.16-5.472 0-2.064.39-3.876 1.16-5.436.79-1.56 1.86-2.76 3.2-3.6 1.34-.84 2.84-1.26 4.5-1.26zm6.19 10.332c0-1.536-.43-2.748-1.29-3.636-.84-.888-1.88-1.332-3.1-1.332-1.22 0-2.27.444-3.13 1.332-.84.864-1.26 2.064-1.26 3.6s.42 2.76 1.26 3.672c.86.888 1.91 1.332 3.13 1.332s2.26-.444 3.1-1.332c.86-.888 1.29-2.1 1.29-3.636zm29.55-.324c0 .576-.04 1.176-.11 1.8h-13.93c.09 1.248.49 2.208 1.19 2.88.72.648 1.59.972 2.62.972 1.54 0 2.61-.648 3.21-1.944h6.55a8.908 8.908 0 01-1.84 3.564c-.86 1.056-1.95 1.884-3.27 2.484-1.32.6-2.8.9-4.43.9-1.97 0-3.72-.42-5.26-1.26-1.53-.84-2.73-2.04-3.6-3.6-.86-1.56-1.29-3.384-1.29-5.472 0-2.088.42-3.912 1.26-5.472.86-1.56 2.06-2.76 3.6-3.6 1.53-.84 3.3-1.26 5.29-1.26 1.94 0 3.67.408 5.18 1.224a8.629 8.629 0 013.53 3.492c.87 1.512 1.3 3.276 1.3 5.292zm-6.3-1.62c0-1.056-.36-1.896-1.08-2.52-.72-.624-1.62-.936-2.7-.936-1.03 0-1.91.3-2.63.9-.7.6-1.13 1.452-1.3 2.556h7.71zm20.74 6.768V185H1157c-2.23 0-3.97-.54-5.22-1.62-1.25-1.104-1.87-2.892-1.87-5.364v-7.992h-2.45v-5.112h2.45v-4.896h6.15v4.896h4.04v5.112h-4.04v8.064c0 .6.15 1.032.44 1.296.28.264.76.396 1.44.396h2.19zm19.23 5.508c-1.75 0-3.31-.3-4.68-.9-1.37-.6-2.45-1.416-3.24-2.448a6.625 6.625 0 01-1.33-3.528h6.08c.08.696.4 1.26.98 1.692.57.432 1.28.648 2.12.648.77 0 1.36-.144 1.76-.432.44-.312.65-.708.65-1.188 0-.576-.3-.996-.9-1.26-.6-.288-1.57-.6-2.91-.936-1.44-.336-2.64-.684-3.6-1.044a6.514 6.514 0 01-2.49-1.764c-.69-.816-1.04-1.908-1.04-3.276 0-1.152.31-2.196.93-3.132.65-.96 1.59-1.716 2.81-2.268 1.25-.552 2.73-.828 4.43-.828 2.52 0 4.5.624 5.94 1.872 1.46 1.248 2.3 2.904 2.52 4.968h-5.69a2.427 2.427 0 00-.93-1.656c-.51-.408-1.18-.612-2.02-.612-.72 0-1.27.144-1.66.432-.38.264-.57.636-.57 1.116 0 .576.3 1.008.9 1.296.62.288 1.58.576 2.88.864 1.49.384 2.7.768 3.63 1.152.94.36 1.76.96 2.45 1.8.72.816 1.09 1.92 1.12 3.312 0 1.176-.34 2.232-1.01 3.168-.65.912-1.6 1.632-2.84 2.16-1.23.528-2.66.792-4.29.792zm23.1-5.508V185h-3.13c-2.23 0-3.97-.54-5.22-1.62-1.25-1.104-1.87-2.892-1.87-5.364v-7.992h-2.45v-5.112h2.45v-4.896h6.15v4.896h4.03v5.112h-4.03v8.064c0 .6.15 1.032.43 1.296.29.264.77.396 1.44.396h2.2zm2.2-4.86c0-2.064.39-3.876 1.16-5.436.79-1.56 1.86-2.76 3.2-3.6 1.34-.84 2.84-1.26 4.5-1.26 1.42 0 2.65.288 3.71.864 1.08.576 1.91 1.332 2.48 2.268v-2.844h6.16V185h-6.16v-2.844c-.6.936-1.44 1.692-2.52 2.268-1.05.576-2.29.864-3.71.864-1.63 0-3.12-.42-4.46-1.26-1.34-.864-2.41-2.076-3.2-3.636-.77-1.584-1.16-3.408-1.16-5.472zm15.05.036c0-1.536-.43-2.748-1.29-3.636-.84-.888-1.88-1.332-3.1-1.332-1.22 0-2.27.444-3.13 1.332-.84.864-1.26 2.064-1.26 3.6s.42 2.76 1.26 3.672c.86.888 1.91 1.332 3.13 1.332s2.26-.444 3.1-1.332c.86-.888 1.29-2.1 1.29-3.636zm16.77-6.696c.72-1.104 1.62-1.968 2.7-2.592 1.08-.648 2.28-.972 3.6-.972v6.516h-1.69c-1.54 0-2.69.336-3.46 1.008-.77.648-1.15 1.8-1.15 3.456V185h-6.16v-20.088h6.16v3.348zm20.44 11.52V185h-3.14c-2.23 0-3.97-.54-5.22-1.62-1.24-1.104-1.87-2.892-1.87-5.364v-7.992h-2.45v-5.112h2.45v-4.896h6.16v4.896h4.03v5.112h-4.03v8.064c0 .6.14 1.032.43 1.296s.77.396 1.44.396h2.2zm22.36-5.148a14.1 14.1 0 01-.11 1.8h-13.93c.1 1.248.49 2.208 1.19 2.88.72.648 1.6.972 2.63.972 1.53 0 2.6-.648 3.2-1.944h6.55a8.763 8.763 0 01-1.83 3.564c-.87 1.056-1.96 1.884-3.28 2.484-1.32.6-2.79.9-4.43.9-1.96 0-3.72-.42-5.25-1.26-1.54-.84-2.74-2.04-3.6-3.6-.87-1.56-1.3-3.384-1.3-5.472 0-2.088.42-3.912 1.26-5.472.87-1.56 2.07-2.76 3.6-3.6 1.54-.84 3.3-1.26 5.29-1.26 1.95 0 3.68.408 5.19 1.224a8.689 8.689 0 013.53 3.492c.86 1.512 1.29 3.276 1.29 5.292zm-6.3-1.62c0-1.056-.36-1.896-1.08-2.52-.72-.624-1.62-.936-2.7-.936-1.03 0-1.91.3-2.63.9-.69.6-1.12 1.452-1.29 2.556h7.7zm8.32 1.908c0-2.064.39-3.876 1.16-5.436.79-1.56 1.86-2.76 3.2-3.6 1.34-.84 2.84-1.26 4.5-1.26 1.32 0 2.52.276 3.6.828 1.1.552 1.97 1.296 2.59 2.232v-9.324h6.16V185h-6.16v-2.88c-.57.96-1.4 1.728-2.48 2.304-1.06.576-2.29.864-3.71.864-1.66 0-3.16-.42-4.5-1.26-1.34-.864-2.41-2.076-3.2-3.636-.77-1.584-1.16-3.408-1.16-5.472zm15.05.036c0-1.536-.43-2.748-1.29-3.636-.84-.888-1.88-1.332-3.1-1.332-1.22 0-2.27.444-3.13 1.332-.84.864-1.26 2.064-1.26 3.6s.42 2.76 1.26 3.672c.86.888 1.91 1.332 3.13 1.332s2.26-.444 3.1-1.332c.86-.888 1.29-2.1 1.29-3.636zm47.08-10.044L1337.99 185h-6.8l-3.17-13.032-3.28 13.032h-6.76l-5.48-20.088h6.16l2.84 14.364 3.39-14.364h6.51l3.42 14.292 2.81-14.292h5.8zm5.44-2.088c-1.08 0-1.97-.312-2.66-.936-.68-.648-1.01-1.44-1.01-2.376 0-.96.33-1.752 1.01-2.376.69-.648 1.58-.972 2.66-.972 1.06 0 1.92.324 2.59.972.7.624 1.05 1.416 1.05 2.376 0 .936-.35 1.728-1.05 2.376-.67.624-1.53.936-2.59.936zm3.06 2.088V185h-6.16v-20.088h6.16zm15.66 14.868V185h-3.13c-2.24 0-3.98-.54-5.22-1.62-1.25-1.104-1.88-2.892-1.88-5.364v-7.992h-2.44v-5.112h2.44v-4.896h6.16v4.896h4.03v5.112h-4.03v8.064c0 .6.14 1.032.43 1.296s.77.396 1.44.396h2.2zm15.78-15.084c2.3 0 4.15.768 5.54 2.304 1.39 1.512 2.09 3.6 2.09 6.264V185h-6.12v-10.908c0-1.344-.35-2.388-1.05-3.132-.69-.744-1.63-1.116-2.8-1.116-1.18 0-2.12.372-2.81 1.116-.7.744-1.05 1.788-1.05 3.132V185h-6.15v-26.64h6.15v9.252c.63-.888 1.48-1.596 2.56-2.124s2.29-.792 3.64-.792zm18.49 7.632c0-2.496.54-4.716 1.62-6.66 1.08-1.968 2.58-3.492 4.5-4.572 1.94-1.104 4.14-1.656 6.59-1.656 3 0 5.57.792 7.7 2.376 2.14 1.584 3.57 3.744 4.29 6.48h-6.77c-.51-1.056-1.23-1.86-2.16-2.412-.91-.552-1.96-.828-3.13-.828-1.9 0-3.44.66-4.61 1.98-1.18 1.32-1.77 3.084-1.77 5.292 0 2.208.59 3.972 1.77 5.292 1.17 1.32 2.71 1.98 4.61 1.98 1.17 0 2.22-.276 3.13-.828.93-.552 1.65-1.356 2.16-2.412h6.77c-.72 2.736-2.15 4.896-4.29 6.48-2.13 1.56-4.7 2.34-7.7 2.34-2.45 0-4.65-.54-6.59-1.62a11.77 11.77 0 01-4.5-4.572c-1.08-1.944-1.62-4.164-1.62-6.66zm27.24 2.592c0-2.064.39-3.876 1.15-5.436.8-1.56 1.86-2.76 3.21-3.6 1.34-.84 2.84-1.26 4.5-1.26 1.41 0 2.65.288 3.71.864 1.08.576 1.9 1.332 2.48 2.268v-2.844h6.16V185h-6.16v-2.844c-.6.936-1.44 1.692-2.52 2.268-1.06.576-2.29.864-3.71.864-1.63 0-3.12-.42-4.46-1.26-1.35-.864-2.41-2.076-3.21-3.636-.76-1.584-1.15-3.408-1.15-5.472zm15.05.036c0-1.536-.43-2.748-1.3-3.636-.84-.888-1.87-1.332-3.09-1.332-1.23 0-2.27.444-3.13 1.332-.84.864-1.26 2.064-1.26 3.6s.42 2.76 1.26 3.672c.86.888 1.9 1.332 3.13 1.332 1.22 0 2.25-.444 3.09-1.332.87-.888 1.3-2.1 1.3-3.636zm22.85-10.26c2.35 0 4.22.768 5.62 2.304 1.41 1.512 2.12 3.6 2.12 6.264V185h-6.12v-10.908c0-1.344-.35-2.388-1.04-3.132-.7-.744-1.64-1.116-2.81-1.116-1.18 0-2.11.372-2.81 1.116-.7.744-1.04 1.788-1.04 3.132V185h-6.16v-20.088h6.16v2.664c.62-.888 1.46-1.584 2.52-2.088 1.05-.528 2.24-.792 3.56-.792zm24.26 0c2.35 0 4.22.768 5.61 2.304 1.42 1.512 2.13 3.6 2.13 6.264V185h-6.12v-10.908c0-1.344-.35-2.388-1.05-3.132-.69-.744-1.63-1.116-2.8-1.116-1.18 0-2.12.372-2.81 1.116-.7.744-1.05 1.788-1.05 3.132V185h-6.15v-20.088h6.15v2.664c.63-.888 1.47-1.584 2.52-2.088 1.06-.528 2.25-.792 3.57-.792zm10.79 10.224c0-2.064.38-3.876 1.15-5.436.79-1.56 1.86-2.76 3.21-3.6 1.34-.84 2.84-1.26 4.5-1.26 1.41 0 2.65.288 3.7.864 1.08.576 1.91 1.332 2.49 2.268v-2.844h6.15V185h-6.15v-2.844c-.6.936-1.44 1.692-2.52 2.268-1.06.576-2.29.864-3.71.864-1.63 0-3.12-.42-4.46-1.26-1.35-.864-2.42-2.076-3.21-3.636-.77-1.584-1.15-3.408-1.15-5.472zm15.05.036c0-1.536-.43-2.748-1.3-3.636-.84-.888-1.87-1.332-3.09-1.332-1.23 0-2.27.444-3.14 1.332-.84.864-1.26 2.064-1.26 3.6s.42 2.76 1.26 3.672c.87.888 1.91 1.332 3.14 1.332 1.22 0 2.25-.444 3.09-1.332.87-.888 1.3-2.1 1.3-3.636zm16.76-7.2c.58-.936 1.41-1.692 2.49-2.268 1.08-.576 2.31-.864 3.71-.864 1.65 0 3.15.42 4.5 1.26 1.34.84 2.4 2.04 3.16 3.6.8 1.56 1.19 3.372 1.19 5.436s-.39 3.888-1.19 5.472c-.76 1.56-1.82 2.772-3.16 3.636-1.35.84-2.85 1.26-4.5 1.26-1.42 0-2.66-.276-3.71-.828-1.06-.576-1.89-1.332-2.49-2.268V185h-6.15v-26.64h6.15v9.396zm8.79 7.164c0-1.536-.43-2.736-1.3-3.6-.84-.888-1.88-1.332-3.13-1.332-1.22 0-2.27.444-3.13 1.332-.84.888-1.26 2.1-1.26 3.636s.42 2.748 1.26 3.636c.86.888 1.91 1.332 3.13 1.332s2.27-.444 3.13-1.332c.87-.912 1.3-2.136 1.3-3.672zm12.59-12.096c-1.08 0-1.97-.312-2.67-.936-.67-.648-1-1.44-1-2.376 0-.96.33-1.752 1-2.376.7-.648 1.59-.972 2.67-.972 1.05 0 1.92.324 2.59.972.7.624 1.04 1.416 1.04 2.376 0 .936-.34 1.728-1.04 2.376-.67.624-1.54.936-2.59.936zm3.06 2.088V185h-6.16v-20.088h6.16zm12.63 20.376c-1.75 0-3.31-.3-4.68-.9-1.37-.6-2.45-1.416-3.24-2.448a6.625 6.625 0 01-1.33-3.528h6.08c.08.696.4 1.26.98 1.692.57.432 1.28.648 2.12.648.77 0 1.36-.144 1.76-.432.44-.312.65-.708.65-1.188 0-.576-.3-.996-.9-1.26-.6-.288-1.57-.6-2.91-.936-1.44-.336-2.64-.684-3.6-1.044a6.514 6.514 0 01-2.49-1.764c-.69-.816-1.04-1.908-1.04-3.276 0-1.152.31-2.196.93-3.132.65-.96 1.59-1.716 2.81-2.268 1.25-.552 2.73-.828 4.43-.828 2.52 0 4.5.624 5.94 1.872 1.46 1.248 2.3 2.904 2.52 4.968h-5.69a2.427 2.427 0 00-.93-1.656c-.51-.408-1.18-.612-2.02-.612-.72 0-1.27.144-1.66.432-.38.264-.57.636-.57 1.116 0 .576.3 1.008.9 1.296.62.288 1.58.576 2.88.864 1.49.384 2.7.768 3.63 1.152.94.36 1.76.96 2.45 1.8.72.816 1.09 1.92 1.12 3.312 0 1.176-.34 2.232-1.01 3.168-.65.912-1.6 1.632-2.84 2.16-1.23.528-2.66.792-4.29.792zm40.52-25.56V185h-6.15v-15.156L1599.65 185h-4.97l-5.69-15.192V185h-6.16v-25.272h7.28l7.09 17.496 7.02-17.496h7.23zm3.21 15.192c0-2.064.38-3.876 1.15-5.436.79-1.56 1.86-2.76 3.2-3.6 1.35-.84 2.85-1.26 4.5-1.26 1.42 0 2.65.288 3.71.864 1.08.576 1.91 1.332 2.48 2.268v-2.844h6.16V185h-6.16v-2.844c-.6.936-1.44 1.692-2.52 2.268-1.05.576-2.29.864-3.7.864-1.64 0-3.12-.42-4.47-1.26-1.34-.864-2.41-2.076-3.2-3.636-.77-1.584-1.15-3.408-1.15-5.472zm15.04.036c0-1.536-.43-2.748-1.29-3.636-.84-.888-1.87-1.332-3.1-1.332-1.22 0-2.27.444-3.13 1.332-.84.864-1.26 2.064-1.26 3.6s.42 2.76 1.26 3.672c.86.888 1.91 1.332 3.13 1.332 1.23 0 2.26-.444 3.1-1.332.86-.888 1.29-2.1 1.29-3.636zm16.77-7.2c.6-.936 1.43-1.692 2.48-2.268 1.06-.576 2.3-.864 3.71-.864 1.66 0 3.16.42 4.5 1.26 1.35.84 2.4 2.04 3.17 3.6.79 1.56 1.19 3.372 1.19 5.436s-.4 3.888-1.19 5.472c-.77 1.56-1.82 2.772-3.17 3.636-1.34.84-2.84 1.26-4.5 1.26-1.39 0-2.63-.288-3.71-.864-1.05-.576-1.88-1.32-2.48-2.232v12.384h-6.16v-29.664h6.16v2.844zm8.78 7.164c0-1.536-.43-2.736-1.29-3.6-.84-.888-1.89-1.332-3.13-1.332-1.23 0-2.27.444-3.14 1.332-.84.888-1.26 2.1-1.26 3.636s.42 2.748 1.26 3.636c.87.888 1.91 1.332 3.14 1.332 1.22 0 2.26-.444 3.13-1.332.86-.912 1.29-2.136 1.29-3.672zm16.88-16.596c2.57 0 4.62.672 6.15 2.016 1.56 1.344 2.34 3.24 2.34 5.688 0 2.256-.74 4.02-2.23 5.292-1.46 1.248-3.41 1.884-5.83 1.908l-.18 2.7h-5.4l-.18-6.696h2.16c1.85 0 3.25-.228 4.21-.684.99-.456 1.48-1.284 1.48-2.484 0-.84-.23-1.5-.69-1.98-.45-.48-1.09-.72-1.9-.72-.87 0-1.54.252-2.02.756-.48.48-.72 1.14-.72 1.98h-5.8c-.04-1.464.26-2.784.9-3.96.68-1.176 1.66-2.1 2.96-2.772 1.32-.696 2.9-1.044 4.75-1.044zm-2.38 26.964c-1.08 0-1.97-.312-2.66-.936a3.183 3.183 0 01-1.01-2.376c0-.96.34-1.764 1.01-2.412.69-.648 1.58-.972 2.66-.972 1.06 0 1.92.324 2.59.972.7.648 1.05 1.452 1.05 2.412 0 .936-.35 1.728-1.05 2.376-.67.624-1.53.936-2.59.936z" fill="#000"/></svg>